0
SECTION
2
HEADER
9
$INSUNITS
70
4
9
$ACADVER
1
AC1014
9
$HANDSEED
5
FFFF
0
ENDSEC
0
SECTION
2
TABLES
0
TABLE
2
VPORT
5
8
100
AcDbSymbolTable
0
ENDTAB
0
TABLE
2
LTYPE
5
5
100
AcDbSymbolTable
0
LTYPE
5
14
100
AcDbSymbolTableRecord
100
AcDbLinetypeTableRecord
2
BYBLOCK
70
0
0
LTYPE
5
15
100
AcDbSymbolTableRecord
100
AcDbLinetypeTableRecord
2
BYLAYER
70
0
0
ENDTAB
0
TABLE
2
LAYER
5
2
100
AcDbSymbolTable
70
2
0
LAYER
5
50
100
AcDbSymbolTableRecord
100
AcDbLayerTableRecord
2
0
70
0
6
CONTINUOUS
0
ENDTAB
0
TABLE
2
STYLE
5
3
100
AcDbSymbolTable
70
1
0
STYLE
5
11
100
AcDbSymbolTableRecord
100
AcDbTextStyleTableRecord
2
STANDARD
70
0
0
ENDTAB
0
TABLE
2
VIEW
5
6
100
AcDbSymbolTable
70
0
0
ENDTAB
0
TABLE
2
UCS
5
7
100
AcDbSymbolTable
70
0
0
ENDTAB
0
TABLE
2
APPID
5
9
100
AcDbSymbolTable
70
2
0
APPID
5
12
100
AcDbSymbolTableRecord
100
AcDbRegAppTableRecord
2
ACAD
70
0
0
ENDTAB
0
TABLE
2
DIMSTYLE
5
A
100
AcDbSymbolTable
70
1
0
ENDTAB
0
TABLE
2
BLOCK_RECORD
5
1
100
AcDbSymbolTable
70
1
0
BLOCK_RECORD
5
1F
100
AcDbSymbolTableRecord
100
AcDbBlockTableRecord
2
*MODEL_SPACE
0
BLOCK_RECORD
5
1B
100
AcDbSymbolTableRecord
100
AcDbBlockTableRecord
2
*PAPER_SPACE
0
ENDTAB
0
ENDSEC
0
SECTION
2
BLOCKS
0
BLOCK
5
20
100
AcDbEntity
100
AcDbBlockBegin
2
*MODEL_SPACE
0
ENDBLK
5
21
100
AcDbEntity
100
AcDbBlockEnd
0
BLOCK
5
1C
100
AcDbEntity
100
AcDbBlockBegin
2
*PAPER_SPACE
0
ENDBLK
5
1D
100
AcDbEntity
100
AcDbBlockEnd
0
ENDSEC
0
SECTION
2
ENTITIES
0
LWPOLYLINE
5
100
100
AcDbEntity
8
OUTER_PROFILES
100
AcDbPolyline
90
30
70
1
43
0.0
10
-1.0602953948768779
20
49.494249056628931
42
-0.21646789215961978
10
0.65000000000001279
20
45.728901315578732
10
0.65000000000001334
20
26.271098684421332
42
-0.21646789215961978
10
-1.0602953948768779
20
22.505750943371137
10
-3.289704605123112
20
20.557963315234208
42
0.21646789215961945
10
-4.9999999999999991
20
16.792615574184019
10
-4.9999999999999991
20
4.9999999999999893
42
0.41421356237309442
10
0
20
5.5511151231257827e-16
10
118.25984004734974
20
-8.8817841970012523e-15
42
0.41421356237309481
10
123.25984004734974
20
4.9999999999999867
10
123.25984004734974
20
16.792615574184182
42
0.2164678921596184
10
121.54954465247286
20
20.557963315234357
10
119.32013544222681
20
22.505750943371126
42
-0.21646789215962048
10
117.60984004734991
20
26.271098684421332
10
117.60984004734991
20
45.728901315578732
42
-0.21646789215961887
10
119.32013544222677
20
49.494249056628917
10
121.54954465247286
20
51.442036684765704
42
0.21646789215961887
10
123.25984004734974
20
55.207384425815889
10
123.25984004734974
20
66.999999999999943
42
0.41421356237309553
10
118.25984004734974
20
71.999999999999957
10
71.245697207737649
20
72.000000000000014
42
0.41421356237309631
10
69.245697207737649
20
70.000000000000014
42
-0.4142135623730937
10
67.245697207737649
20
68.000000000000028
10
63.245697207737656
20
68.000000000000028
42
-0.41421356237309631
10
61.245697207737649
20
70.000000000000028
42
0.41421356237309243
10
59.245697207737663
20
72.000000000000028
10
3.0616169978683826e-16
20
72.000000000000071
42
0.41421356237309503
10
-4.9999999999999991
20
67.000000000000071
10
-4.9999999999999902
20
55.207384425816045
42
0.2164678921596192
10
-3.2897046051231085
20
51.44203668476586
0
LWPOLYLINE
5
101
100
AcDbEntity
8
INTERIOR_PROFILES
100
AcDbPolyline
90
4
70
1
43
0.0
10
95.999920023676424
20
12.328983407980889
10
89.999920023676452
20
12.328983407990339
42
0.99999999999999989
10
89.999920023673283
20
10.328983407990346
10
95.999920023673297
20
10.328983407980878
42
0.99999999999999989
0
LWPOLYLINE
5
102
100
AcDbEntity
8
INTERIOR_PROFILES
100
AcDbPolyline
90
4
70
1
43
0.0
10
26.801415067652936
20
38.289581115934467
42
0.99999999999999989
10
26.801415067652936
20
40.289581115934467
10
20.80141506765294
20
40.289581115934467
42
0.99999999999999989
10
20.80141506765294
20
38.289581115934467
0
LWPOLYLINE
5
103
100
AcDbEntity
8
INTERIOR_PROFILES
100
AcDbPolyline
90
4
70
1
43
0.0
10
20.80141506765294
20
28.289581115934467
10
26.801415067652936
20
28.289581115934467
42
0.99999999999999989
10
26.801415067652936
20
30.289581115934467
10
20.80141506765294
20
30.289581115934467
42
0.99999999999999989
0
CIRCLE
5
104
100
AcDbEntity
8
INTERIOR_PROFILES
100
AcDbCircle
10
-75.066303047603498
20
66.903932296373341
30
0
40
1.6000000000000014
210
0
220
0
230
-1
0
LWPOLYLINE
5
105
100
AcDbEntity
8
INTERIOR_PROFILES
100
AcDbPolyline
90
4
70
1
43
0.0
10
89.999920023674775
20
38.328983407980886
42
0.99999999999999989
10
89.999920023674775
20
36.328983407980886
10
95.99992002367479
20
36.32898340798085
42
0.99999999999999989
10
95.99992002367479
20
38.3289834079809
0
LWPOLYLINE
5
106
100
AcDbEntity
8
INTERIOR_PROFILES
100
AcDbPolyline
90
4
70
1
43
0.0
10
51.801415067652947
20
40.289581115934467
42
0.99999999999999989
10
51.801415067652947
20
38.289581115934467
10
57.80141506765294
20
38.289581115934475
42
0.99999999999999989
10
57.80141506765294
20
40.289581115934467
0
LWPOLYLINE
5
107
100
AcDbEntity
8
INTERIOR_PROFILES
100
AcDbPolyline
90
4
70
1
43
0.0
10
51.801415067652947
20
28.289581115934471
10
57.80141506765294
20
28.289581115934475
42
0.99999999999999989
10
57.80141506765294
20
30.289581115934467
10
51.801415067652947
20
30.289581115934471
42
0.99999999999999989
0
LWPOLYLINE
5
108
100
AcDbEntity
8
INTERIOR_PROFILES
100
AcDbPolyline
90
4
70
1
43
0.0
10
95.999920023674775
20
18.328983407980914
10
89.999920023674775
20
18.328983407980893
42
0.99999999999999989
10
89.999920023674775
20
16.328983407980886
10
95.999920023674775
20
16.328983407980864
42
0.99999999999999989
0
LWPOLYLINE
5
109
100
AcDbEntity
8
INTERIOR_PROFILES
100
AcDbPolyline
90
4
70
1
43
0.0
10
62.245697207737649
20
62.000000000000028
10
68.245697207737649
20
62.000000000000028
42
0.99999999999999989
10
68.245697207737649
20
64.000000000000028
10
62.245697207737649
20
64.000000000000028
42
0.99999999999999989
0
CIRCLE
5
110
100
AcDbEntity
8
INTERIOR_PROFILES
100
AcDbCircle
10
-17.066303047603508
20
17.903932296373366
30
0
40
1.5999999999999925
210
0
220
0
230
-1
0
LWPOLYLINE
5
111
100
AcDbEntity
8
INTERIOR_PROFILES
100
AcDbPolyline
90
4
70
1
43
0.0
10
89.999920023673326
20
44.328983407971435
42
0.99999999999999989
10
89.999920023676452
20
42.328983407971421
10
95.999920023676452
20
42.328983407980878
42
0.99999999999999989
10
95.999920023673326
20
44.328983407980871
0
CIRCLE
5
112
100
AcDbEntity
8
INTERIOR_PROFILES
100
AcDbCircle
10
-119.25984004734991
20
56.654923353295921
30
0
40
1.6500000000000004
210
0
220
0
230
-1
0
CIRCLE
5
113
100
AcDbEntity
8
INTERIOR_PROFILES
100
AcDbCircle
10
0.99999999999999645
20
56.654923353295921
30
0
40
1.6500000000000004
210
0
220
0
230
-1
0
CIRCLE
5
114
100
AcDbEntity
8
INTERIOR_PROFILES
100
AcDbCircle
10
0.99999999999999645
20
15.345076646704143
30
0
40
1.6500000000000004
210
0
220
0
230
-1
0
CIRCLE
5
115
100
AcDbEntity
8
INTERIOR_PROFILES
100
AcDbCircle
10
-119.25984004734993
20
15.345076646704143
30
0
40
1.6500000000000004
210
0
220
0
230
-1
0
CIRCLE
5
116
100
AcDbEntity
8
INTERIOR_PROFILES
100
AcDbCircle
10
-75.066303047603498
20
17.903932296373391
30
0
40
1.5999999999999925
210
0
220
0
230
-1
0
CIRCLE
5
117
100
AcDbEntity
8
INTERIOR_PROFILES
100
AcDbCircle
10
-17.066303047603498
20
66.903932296373313
30
0
40
1.6000000000000014
210
0
220
0
230
-1
0
CIRCLE
5
118
100
AcDbEntity
8
INTERIOR_PROFILES
100
AcDbCircle
10
0.99999999999999645
20
6.3450766467041397
30
0
40
1.6500000000000004
210
0
220
0
230
-1
0
CIRCLE
5
119
100
AcDbEntity
8
INTERIOR_PROFILES
100
AcDbCircle
10
-119.25984004734993
20
6.3450766467041397
30
0
40
1.6500000000000004
210
0
220
0
230
-1
0
CIRCLE
5
120
100
AcDbEntity
8
INTERIOR_PROFILES
100
AcDbCircle
10
-119.25984004734991
20
65.654923353295928
30
0
40
1.6500000000000004
210
0
220
0
230
-1
0
CIRCLE
5
121
100
AcDbEntity
8
INTERIOR_PROFILES
100
AcDbCircle
10
0.99999999999998757
20
65.654923353295928
30
0
40
1.6500000000000004
210
0
220
0
230
-1
0
LINE
5
122
100
AcDbEntity
8
BEND
100
AcDbLine
10
8.3149600118374245
20
0
30
1.4571259512157917e-14
11
8.3149600118374245
21
72.000000000000099
31
1.4571259512157917e-14
0
LINE
5
123
100
AcDbEntity
8
BEND
100
AcDbLine
10
109.94488003551228
20
71.999999999999957
30
3.0801186434977162e-13
11
109.94488003551228
21
0
31
3.0801186434977162e-13
0
LINE
5
124
100
AcDbEntity
8
BEND_EXTENT
100
AcDbLine
10
111.88984004734974
20
71.999999999999957
30
3.0530096153015418e-13
11
111.88984004734974
21
0
31
3.0530096153015418e-13
0
LINE
5
125
100
AcDbEntity
8
BEND_EXTENT
100
AcDbLine
10
107.99992002367486
20
-8.8817841970012523e-15
30
3.0295120599701302e-13
11
107.99992002367486
21
72
31
3.0295120599701302e-13
0
LINE
5
126
100
AcDbEntity
8
BEND_EXTENT
100
AcDbLine
10
6.3700000000000045
20
0
30
6.288169623980973e-16
11
6.3700000000000045
21
72.000000000000099
31
6.288169623980973e-16
0
LINE
5
127
100
AcDbEntity
8
BEND_EXTENT
100
AcDbLine
10
10.259920023674871
20
72.000000000000071
30
2.0742140889541735e-14
11
10.259920023674871
21
-8.8817841970012523e-15
31
2.0742140889541735e-14
0
ENDSEC
0
SECTION
2
OBJECTS
0
DICTIONARY
5
C
100
AcDbDictionary
3
ACAD_GROUP
350
D
3
ACAD_MLINESTYLE
350
17
0
DICTIONARY
5
D
100
AcDbDictionary
0
DICTIONARY
5
1A
330
C
100
AcDbDictionary
0
DICTIONARY
5
17
100
AcDbDictionary
0
ENDSEC
0
EOF
