G04 EAGLE Gerber RS-274X export*
G75*
%MOMM*%
%FSLAX34Y34*%
%LPD*%
%INTop Copper*%
%IPPOS*%
%AMOC8*
5,1,8,0,0,1.08239X$1,22.5*%
G01*
%ADD10C,1.422400*%
%ADD11C,1.500000*%
%ADD12R,4.000000X8.000000*%
%ADD13C,1.650000*%
%ADD14R,1.676400X1.676400*%
%ADD15C,1.676400*%
%ADD16R,1.422400X1.422400*%
%ADD17R,0.987300X1.311800*%
%ADD18R,1.311800X0.987300*%
%ADD19C,1.386000*%
%ADD20C,2.000000*%
%ADD21C,5.500000*%
%ADD22C,0.254000*%
%ADD23C,0.508000*%
%ADD24C,0.756400*%
%ADD25C,1.016000*%

G36*
X420110Y389255D02*
X420110Y389255D01*
X420181Y389261D01*
X420229Y389281D01*
X420280Y389292D01*
X420341Y389329D01*
X420407Y389357D01*
X420463Y389402D01*
X420491Y389418D01*
X420506Y389436D01*
X420538Y389462D01*
X480538Y449462D01*
X480591Y449536D01*
X480651Y449605D01*
X480663Y449635D01*
X480682Y449661D01*
X480709Y449748D01*
X480743Y449833D01*
X480747Y449874D01*
X480754Y449897D01*
X480753Y449929D01*
X480761Y450000D01*
X480761Y529685D01*
X500315Y549239D01*
X507056Y549239D01*
X507121Y549249D01*
X507187Y549250D01*
X507267Y549273D01*
X507299Y549279D01*
X507316Y549288D01*
X507348Y549297D01*
X510380Y550553D01*
X514220Y550553D01*
X517252Y549297D01*
X517316Y549282D01*
X517377Y549257D01*
X517460Y549248D01*
X517492Y549241D01*
X517511Y549242D01*
X517544Y549239D01*
X529239Y549239D01*
X529239Y530000D01*
X529242Y529980D01*
X529240Y529961D01*
X529262Y529859D01*
X529279Y529757D01*
X529288Y529740D01*
X529292Y529720D01*
X529345Y529631D01*
X529394Y529540D01*
X529408Y529526D01*
X529418Y529509D01*
X529497Y529442D01*
X529572Y529371D01*
X529590Y529362D01*
X529605Y529349D01*
X529701Y529310D01*
X529795Y529267D01*
X529815Y529265D01*
X529833Y529257D01*
X530000Y529239D01*
X554158Y529239D01*
X554178Y529242D01*
X554197Y529240D01*
X554299Y529262D01*
X554401Y529279D01*
X554418Y529288D01*
X554438Y529292D01*
X554527Y529345D01*
X554618Y529394D01*
X554632Y529408D01*
X554649Y529418D01*
X554716Y529497D01*
X554788Y529572D01*
X554796Y529590D01*
X554809Y529605D01*
X554848Y529701D01*
X554891Y529795D01*
X554893Y529815D01*
X554901Y529833D01*
X554919Y530000D01*
X554919Y585842D01*
X554905Y585932D01*
X554897Y586023D01*
X554885Y586053D01*
X554880Y586085D01*
X554837Y586165D01*
X554801Y586249D01*
X554775Y586281D01*
X554764Y586302D01*
X554741Y586324D01*
X554696Y586380D01*
X547319Y593758D01*
X547302Y593770D01*
X547290Y593785D01*
X547203Y593841D01*
X547119Y593902D01*
X547100Y593907D01*
X547083Y593918D01*
X546983Y593943D01*
X546884Y593974D01*
X546864Y593973D01*
X546845Y593978D01*
X546742Y593970D01*
X546638Y593968D01*
X546619Y593961D01*
X546599Y593959D01*
X546505Y593919D01*
X546407Y593883D01*
X546391Y593871D01*
X546373Y593863D01*
X546242Y593758D01*
X543445Y590961D01*
X536595Y587006D01*
X528955Y584959D01*
X521045Y584959D01*
X513405Y587006D01*
X506555Y590961D01*
X501978Y595538D01*
X501904Y595591D01*
X501834Y595651D01*
X501804Y595663D01*
X501778Y595682D01*
X501691Y595709D01*
X501606Y595743D01*
X501565Y595747D01*
X501543Y595754D01*
X501511Y595753D01*
X501439Y595761D01*
X490000Y595761D01*
X489910Y595747D01*
X489819Y595739D01*
X489789Y595727D01*
X489757Y595722D01*
X489677Y595679D01*
X489593Y595643D01*
X489561Y595617D01*
X489540Y595606D01*
X489518Y595583D01*
X489462Y595538D01*
X419462Y525538D01*
X419409Y525464D01*
X419349Y525395D01*
X419337Y525365D01*
X419318Y525339D01*
X419291Y525252D01*
X419257Y525167D01*
X419253Y525126D01*
X419246Y525103D01*
X419247Y525071D01*
X419239Y525000D01*
X419239Y390000D01*
X419250Y389929D01*
X419252Y389858D01*
X419270Y389809D01*
X419279Y389757D01*
X419312Y389694D01*
X419337Y389627D01*
X419369Y389586D01*
X419394Y389540D01*
X419445Y389491D01*
X419490Y389435D01*
X419534Y389406D01*
X419572Y389371D01*
X419637Y389340D01*
X419697Y389302D01*
X419748Y389289D01*
X419795Y389267D01*
X419866Y389259D01*
X419936Y389241D01*
X419988Y389246D01*
X420039Y389240D01*
X420110Y389255D01*
G37*
G36*
X200020Y94242D02*
X200020Y94242D01*
X200039Y94240D01*
X200141Y94262D01*
X200243Y94279D01*
X200260Y94288D01*
X200280Y94292D01*
X200369Y94345D01*
X200460Y94394D01*
X200474Y94408D01*
X200491Y94418D01*
X200558Y94497D01*
X200630Y94572D01*
X200638Y94590D01*
X200651Y94605D01*
X200690Y94701D01*
X200733Y94795D01*
X200735Y94815D01*
X200743Y94833D01*
X200761Y95000D01*
X200761Y130000D01*
X200758Y130020D01*
X200760Y130039D01*
X200738Y130141D01*
X200722Y130243D01*
X200712Y130260D01*
X200708Y130280D01*
X200655Y130369D01*
X200606Y130460D01*
X200592Y130474D01*
X200582Y130491D01*
X200503Y130558D01*
X200428Y130630D01*
X200410Y130638D01*
X200395Y130651D01*
X200299Y130690D01*
X200205Y130733D01*
X200185Y130735D01*
X200167Y130743D01*
X200000Y130761D01*
X170000Y130761D01*
X169980Y130758D01*
X169961Y130760D01*
X169859Y130738D01*
X169757Y130722D01*
X169740Y130712D01*
X169720Y130708D01*
X169631Y130655D01*
X169540Y130606D01*
X169526Y130592D01*
X169509Y130582D01*
X169442Y130503D01*
X169371Y130428D01*
X169362Y130410D01*
X169349Y130395D01*
X169310Y130299D01*
X169267Y130205D01*
X169265Y130185D01*
X169257Y130167D01*
X169239Y130000D01*
X169239Y95000D01*
X169242Y94980D01*
X169240Y94961D01*
X169262Y94859D01*
X169279Y94757D01*
X169288Y94740D01*
X169292Y94720D01*
X169345Y94631D01*
X169394Y94540D01*
X169408Y94526D01*
X169418Y94509D01*
X169497Y94442D01*
X169572Y94371D01*
X169590Y94362D01*
X169605Y94349D01*
X169701Y94310D01*
X169795Y94267D01*
X169815Y94265D01*
X169833Y94257D01*
X170000Y94239D01*
X200000Y94239D01*
X200020Y94242D01*
G37*
%LPC*%
G36*
X510380Y556647D02*
X510380Y556647D01*
X506832Y558117D01*
X504117Y560832D01*
X502647Y564380D01*
X502647Y568220D01*
X504117Y571768D01*
X506832Y574483D01*
X510380Y575953D01*
X514220Y575953D01*
X517768Y574483D01*
X520483Y571768D01*
X521953Y568220D01*
X521953Y564380D01*
X520483Y560832D01*
X517768Y558117D01*
X514220Y556647D01*
X510380Y556647D01*
G37*
%LPD*%
D10*
X512300Y566300D03*
X537700Y566300D03*
X512300Y540900D03*
X537700Y540900D03*
X512300Y515500D03*
X537700Y515500D03*
X512300Y490100D03*
X537700Y490100D03*
X512300Y464700D03*
X537700Y464700D03*
X512300Y439300D03*
X537700Y439300D03*
X512300Y413900D03*
X537700Y413900D03*
X512300Y388500D03*
X537700Y388500D03*
X512300Y363100D03*
X537700Y363100D03*
X512300Y337700D03*
X537700Y337700D03*
X512300Y312300D03*
X537700Y312300D03*
X512300Y286900D03*
X537700Y286900D03*
X512300Y261500D03*
X537700Y261500D03*
X512300Y236100D03*
X537700Y236100D03*
X512300Y210700D03*
X537700Y210700D03*
X512300Y185300D03*
X537700Y185300D03*
X512300Y159900D03*
X537700Y159900D03*
X512300Y134500D03*
X537700Y134500D03*
X512300Y109100D03*
X537700Y109100D03*
X512300Y83700D03*
X537700Y83700D03*
D11*
X20500Y155000D03*
X259500Y155000D03*
D12*
X120000Y60000D03*
X187300Y60000D03*
D13*
X304600Y55000D03*
X355400Y55000D03*
D14*
X218500Y264600D03*
D15*
X218500Y290000D03*
X218500Y315400D03*
D16*
X374200Y416100D03*
D10*
X399600Y416100D03*
X425000Y416100D03*
D17*
X184123Y550000D03*
X165877Y550000D03*
X219123Y550000D03*
X200877Y550000D03*
D10*
X275000Y435400D03*
X275000Y410000D03*
X275000Y384600D03*
D18*
X40000Y509123D03*
X40000Y490877D03*
X340000Y215877D03*
X340000Y234123D03*
D17*
X415877Y135000D03*
X434123Y135000D03*
D10*
X275000Y290000D03*
X275000Y315400D03*
D13*
X355400Y135000D03*
X304600Y135000D03*
D18*
X370000Y215877D03*
X370000Y234123D03*
D17*
X415877Y210000D03*
X434123Y210000D03*
D19*
X96900Y431900D03*
X122300Y431900D03*
X147700Y431900D03*
X173100Y431900D03*
X173100Y508100D03*
X147700Y508100D03*
X122300Y508100D03*
X96900Y508100D03*
D18*
X40000Y459123D03*
X40000Y440877D03*
D16*
X374200Y306100D03*
D10*
X399600Y306100D03*
X425000Y306100D03*
D18*
X270000Y519123D03*
X270000Y500877D03*
D10*
X262300Y605000D03*
X287700Y605000D03*
D18*
X310000Y215877D03*
X310000Y234123D03*
D17*
X415877Y55000D03*
X434123Y55000D03*
D10*
X460000Y520000D03*
X460000Y494600D03*
X434600Y520000D03*
X434600Y494600D03*
X409200Y520000D03*
X409200Y494600D03*
X383800Y520000D03*
X383800Y494600D03*
X358400Y520000D03*
X358400Y494600D03*
X333000Y520000D03*
X333000Y494600D03*
X307600Y520000D03*
X307600Y494600D03*
D18*
X230000Y500877D03*
X230000Y519123D03*
D10*
X107700Y550000D03*
X82300Y550000D03*
D16*
X408100Y550950D03*
D10*
X408100Y570000D03*
X408100Y589050D03*
D17*
X379123Y620000D03*
X360877Y620000D03*
X400877Y620000D03*
X419123Y620000D03*
D16*
X138100Y370950D03*
D10*
X138100Y390000D03*
X138100Y409050D03*
X215000Y359600D03*
X215000Y410400D03*
D17*
X130877Y550000D03*
X149123Y550000D03*
D20*
X425000Y416100D02*
X425000Y306100D01*
D21*
X35000Y615000D03*
X525000Y615000D03*
X525000Y35000D03*
X35000Y35000D03*
D22*
X60000Y550000D02*
X82300Y550000D01*
X60000Y550000D02*
X40000Y530000D01*
X40000Y509123D01*
D23*
X485000Y615000D02*
X525000Y615000D01*
X459050Y589050D02*
X408100Y589050D01*
X459050Y589050D02*
X485000Y615000D01*
D24*
X200000Y130000D03*
X200000Y120000D03*
X200000Y110000D03*
X190000Y130000D03*
X190000Y120000D03*
X190000Y110000D03*
X180000Y110000D03*
X180000Y120000D03*
X180000Y130000D03*
X170000Y130000D03*
X170000Y120000D03*
X170000Y110000D03*
D25*
X120000Y110000D02*
X120000Y60000D01*
X120000Y110000D02*
X75000Y155000D01*
X20500Y155000D01*
X259500Y155000D02*
X259500Y100100D01*
X304600Y55000D01*
X335400Y55000D02*
X355400Y55000D01*
X335400Y55000D02*
X280000Y110400D01*
X280000Y180000D01*
X227500Y232500D01*
X197500Y232500D01*
X182500Y247500D01*
X198500Y315400D02*
X218500Y315400D01*
X198500Y315400D02*
X182500Y299400D01*
X182500Y247500D01*
X275000Y315400D02*
X275000Y384600D01*
D22*
X107700Y518900D02*
X96900Y508100D01*
X107700Y518900D02*
X107700Y550000D01*
X200877Y550000D02*
X200877Y564123D01*
X195000Y570000D01*
X165877Y570000D01*
X130000Y570000D01*
X110000Y550000D01*
X107700Y550000D01*
X200877Y550000D02*
X200877Y479123D01*
X220000Y460000D02*
X287500Y460000D01*
X302500Y445000D01*
X302500Y397100D01*
X290000Y384600D01*
X275000Y384600D01*
X220000Y460000D02*
X200877Y479123D01*
X165877Y550000D02*
X165877Y570000D01*
X219123Y550000D02*
X220000Y550000D01*
X230000Y540000D01*
X230000Y519123D01*
X219123Y519123D01*
X210000Y510000D01*
X210000Y490000D01*
X230000Y470000D01*
X292500Y470000D01*
X312500Y450000D01*
X287100Y264600D02*
X218500Y264600D01*
X312500Y290000D02*
X312500Y450000D01*
X312500Y290000D02*
X287100Y264600D01*
X60877Y440877D02*
X40000Y440877D01*
X60877Y440877D02*
X70000Y450000D01*
X104200Y450000D01*
X122300Y431900D01*
X110000Y419600D01*
X110000Y360000D02*
X120000Y350000D01*
X180000Y350000D01*
X240000Y410000D01*
X275000Y410000D01*
X110000Y419600D02*
X110000Y360000D01*
X419123Y620000D02*
X419123Y630877D01*
X410000Y640000D01*
X360000Y640000D01*
X345000Y625000D01*
X345000Y620000D01*
X345000Y550000D01*
D23*
X407150Y550000D01*
D22*
X408100Y550950D01*
X360877Y620000D02*
X345000Y620000D01*
D23*
X300000Y550000D02*
X290000Y540000D01*
X300000Y550000D02*
X345000Y550000D01*
X340000Y234123D02*
X370000Y234123D01*
X340000Y234123D02*
X310000Y234123D01*
X290000Y500000D02*
X290000Y540000D01*
X290000Y500000D02*
X290000Y490000D01*
D22*
X289123Y500877D02*
X270000Y500877D01*
X289123Y500877D02*
X290000Y500000D01*
D23*
X290000Y490000D02*
X322500Y457500D01*
X322500Y277500D01*
X310000Y265000D01*
X310000Y234123D01*
D22*
X405000Y135000D02*
X415877Y135000D01*
X340000Y200000D02*
X340000Y215877D01*
X340000Y200000D02*
X405000Y135000D01*
X394123Y215877D02*
X370000Y215877D01*
X394123Y215877D02*
X400000Y210000D01*
X415877Y210000D01*
X40000Y459123D02*
X40000Y490877D01*
X147700Y507700D02*
X147700Y508100D01*
X147700Y507700D02*
X130000Y490000D01*
X40877Y490000D01*
X40000Y490877D01*
D25*
X374200Y416100D02*
X374200Y306100D01*
X275000Y290000D02*
X218500Y290000D01*
D22*
X270000Y597300D02*
X262300Y605000D01*
X270000Y597300D02*
X270000Y519123D01*
X397500Y62500D02*
X405000Y55000D01*
X415877Y55000D01*
X397500Y62500D02*
X397500Y120000D01*
X310000Y207500D01*
X310000Y215877D01*
X434123Y210000D02*
X450000Y210000D01*
X470000Y230000D01*
X470000Y371600D02*
X512300Y413900D01*
X470000Y371600D02*
X470000Y230000D01*
X445000Y135000D02*
X434123Y135000D01*
X445000Y135000D02*
X450000Y140000D01*
X450000Y195000D01*
X480000Y225000D01*
X480000Y356200D02*
X512300Y388500D01*
X480000Y356200D02*
X480000Y225000D01*
X445000Y55000D02*
X434123Y55000D01*
X490000Y315400D02*
X512300Y337700D01*
X460000Y70000D02*
X445000Y55000D01*
X460000Y70000D02*
X460000Y190000D01*
X490000Y220000D01*
X490000Y315400D01*
X512300Y312300D02*
X525000Y325000D01*
X525000Y419146D02*
X516646Y427500D01*
X500000Y427500D01*
X525000Y419146D02*
X525000Y325000D01*
X457500Y272500D02*
X457500Y385000D01*
X457500Y272500D02*
X440000Y255000D01*
X457500Y385000D02*
X500000Y427500D01*
X440000Y255000D02*
X362500Y255000D01*
X335000Y282500D01*
X335000Y467500D02*
X320000Y482500D01*
X320000Y535000D01*
X335000Y467500D02*
X335000Y282500D01*
D24*
X320000Y535000D03*
D22*
X160000Y520000D02*
X160000Y480000D01*
X282500Y450000D02*
X292500Y440000D01*
X292500Y405000D01*
X190000Y450000D02*
X160000Y480000D01*
X190000Y450000D02*
X282500Y450000D01*
X292500Y405000D02*
X285000Y397500D01*
X260000Y397500D01*
X250000Y387500D01*
X250000Y320000D01*
X232500Y302500D01*
X207500Y302500D01*
X197500Y292500D01*
X197500Y257500D02*
X207500Y247500D01*
X197500Y257500D02*
X197500Y292500D01*
X512300Y159900D02*
X525000Y147200D01*
X525000Y127500D01*
X520000Y122500D01*
X495000Y122500D01*
X490000Y117500D01*
X490000Y65000D01*
X455000Y30000D01*
X390000Y30000D01*
X372500Y47500D01*
X295000Y175000D02*
X295000Y187500D01*
X235000Y247500D01*
X372500Y97500D02*
X372500Y47500D01*
X372500Y97500D02*
X295000Y175000D01*
X235000Y247500D02*
X207500Y247500D01*
X149123Y530877D02*
X149123Y550000D01*
X149123Y530877D02*
X160000Y520000D01*
X230000Y500877D02*
X240877Y500877D01*
X250000Y510000D01*
X250000Y550000D01*
X220000Y580000D01*
X70000Y580000D01*
X20000Y530000D01*
X20000Y430000D02*
X30000Y420000D01*
X85000Y420000D01*
X96900Y431900D01*
X20000Y430000D02*
X20000Y530000D01*
X184123Y520000D02*
X184123Y550000D01*
X184123Y520000D02*
X173100Y508977D01*
X173100Y508100D01*
X150000Y390000D02*
X138100Y390000D01*
X150000Y390000D02*
X160000Y400000D01*
X160000Y419600D01*
X147700Y431900D01*
X379123Y620000D02*
X390000Y620000D01*
X400877Y620000D01*
X390000Y588100D02*
X408100Y570000D01*
X390000Y588100D02*
X390000Y620000D01*
X408100Y570000D02*
X420000Y570000D01*
X425000Y565000D01*
X425000Y545000D01*
X415000Y535000D01*
X390000Y535000D01*
X383800Y528800D01*
X383800Y520000D01*
X500500Y515500D02*
X512300Y515500D01*
X500500Y515500D02*
X490000Y505000D01*
X490000Y440000D01*
X445000Y297500D02*
X432500Y285000D01*
X367500Y285000D01*
X357500Y295000D02*
X357500Y432500D01*
X445000Y395000D02*
X490000Y440000D01*
X445000Y395000D02*
X445000Y297500D01*
X367500Y285000D02*
X357500Y295000D01*
D24*
X357500Y432500D03*
D22*
X404200Y489600D02*
X409200Y494600D01*
X404200Y489600D02*
X399600Y489600D01*
X345000Y435000D01*
X345000Y287500D02*
X360000Y272500D01*
X410000Y272500D01*
X345000Y287500D02*
X345000Y435000D01*
D24*
X410000Y272500D03*
D22*
X355400Y135000D02*
X385000Y105400D01*
X385000Y55000D01*
X400000Y40000D01*
X450000Y40000D02*
X480000Y70000D01*
X480000Y120000D01*
X494500Y134500D01*
X512300Y134500D01*
X450000Y40000D02*
X400000Y40000D01*
X130877Y516677D02*
X130877Y550000D01*
X130877Y516677D02*
X122300Y508100D01*
M02*
