G04 EAGLE Gerber RS-274X export*
G75*
%MOMM*%
%FSLAX34Y34*%
%LPD*%
%INBottom Copper*%
%IPPOS*%
%AMOC8*
5,1,8,0,0,1.08239X$1,22.5*%
G01*
%ADD10C,1.422400*%
%ADD11C,1.500000*%
%ADD12C,1.650000*%
%ADD13R,1.676400X1.676400*%
%ADD14C,1.676400*%
%ADD15R,1.422400X1.422400*%
%ADD16C,1.386000*%
%ADD17C,5.500000*%
%ADD18C,0.756400*%
%ADD19C,1.016000*%
%ADD20C,0.508000*%
%ADD21C,0.254000*%

G36*
X529704Y5086D02*
X529704Y5086D01*
X529780Y5088D01*
X533124Y5567D01*
X533147Y5574D01*
X533269Y5603D01*
X539857Y7923D01*
X539871Y7930D01*
X539886Y7933D01*
X540034Y8012D01*
X545797Y11958D01*
X545808Y11969D01*
X545822Y11976D01*
X545945Y12091D01*
X550490Y17394D01*
X550498Y17407D01*
X550510Y17418D01*
X550599Y17560D01*
X553616Y23859D01*
X553621Y23874D01*
X553629Y23887D01*
X553678Y24048D01*
X554963Y30912D01*
X554964Y30937D01*
X554976Y31061D01*
X554959Y32549D01*
X554944Y32635D01*
X554937Y32721D01*
X554923Y32755D01*
X554919Y32777D01*
X554919Y34776D01*
X554916Y34793D01*
X554918Y34809D01*
X554916Y34817D01*
X554917Y34834D01*
X554772Y36723D01*
X554809Y36766D01*
X554832Y36823D01*
X554864Y36876D01*
X554877Y36937D01*
X554901Y36994D01*
X554911Y37084D01*
X554918Y37116D01*
X554916Y37133D01*
X554919Y37161D01*
X554919Y612839D01*
X554909Y612900D01*
X554909Y612963D01*
X554889Y613021D01*
X554880Y613082D01*
X554850Y613137D01*
X554830Y613196D01*
X554780Y613270D01*
X554772Y613284D01*
X554917Y615166D01*
X554915Y615187D01*
X554919Y615224D01*
X554919Y617238D01*
X554939Y617285D01*
X554945Y617331D01*
X554952Y617356D01*
X554951Y617387D01*
X554959Y617451D01*
X554976Y618939D01*
X554972Y618962D01*
X554963Y619087D01*
X553678Y625952D01*
X553673Y625967D01*
X553672Y625983D01*
X553616Y626141D01*
X550599Y632440D01*
X550590Y632453D01*
X550584Y632468D01*
X550490Y632606D01*
X545945Y637909D01*
X545933Y637919D01*
X545924Y637932D01*
X545797Y638042D01*
X540034Y641988D01*
X540033Y641988D01*
X540032Y641989D01*
X540019Y641995D01*
X540008Y642005D01*
X539857Y642078D01*
X533269Y644397D01*
X533245Y644401D01*
X533124Y644433D01*
X529780Y644912D01*
X529747Y644911D01*
X529672Y644919D01*
X30328Y644919D01*
X30296Y644914D01*
X30220Y644912D01*
X26876Y644433D01*
X26853Y644426D01*
X26731Y644397D01*
X20143Y642077D01*
X20129Y642070D01*
X20114Y642067D01*
X19966Y641988D01*
X14203Y638042D01*
X14192Y638031D01*
X14178Y638024D01*
X14055Y637909D01*
X9510Y632606D01*
X9502Y632593D01*
X9490Y632582D01*
X9401Y632440D01*
X6384Y626141D01*
X6379Y626126D01*
X6371Y626113D01*
X6322Y625952D01*
X5037Y619087D01*
X5036Y619063D01*
X5024Y618939D01*
X5041Y617451D01*
X5056Y617365D01*
X5063Y617279D01*
X5077Y617245D01*
X5081Y617223D01*
X5081Y615224D01*
X5084Y615203D01*
X5083Y615166D01*
X5228Y613277D01*
X5191Y613234D01*
X5168Y613177D01*
X5136Y613124D01*
X5123Y613063D01*
X5099Y613006D01*
X5089Y612916D01*
X5082Y612884D01*
X5084Y612867D01*
X5081Y612839D01*
X5081Y37161D01*
X5091Y37100D01*
X5091Y37037D01*
X5111Y36979D01*
X5120Y36918D01*
X5150Y36863D01*
X5170Y36804D01*
X5220Y36730D01*
X5228Y36716D01*
X5083Y34834D01*
X5085Y34813D01*
X5081Y34776D01*
X5081Y32762D01*
X5061Y32715D01*
X5055Y32669D01*
X5048Y32644D01*
X5049Y32613D01*
X5041Y32549D01*
X5024Y31061D01*
X5028Y31038D01*
X5037Y30913D01*
X6322Y24048D01*
X6327Y24033D01*
X6328Y24017D01*
X6384Y23859D01*
X9401Y17560D01*
X9410Y17547D01*
X9416Y17532D01*
X9510Y17394D01*
X14055Y12091D01*
X14067Y12081D01*
X14076Y12068D01*
X14203Y11958D01*
X19966Y8012D01*
X19980Y8006D01*
X19992Y7995D01*
X20143Y7923D01*
X26731Y5603D01*
X26755Y5599D01*
X26876Y5567D01*
X30220Y5088D01*
X30253Y5089D01*
X30328Y5081D01*
X529672Y5081D01*
X529704Y5086D01*
G37*
%LPC*%
G36*
X27000Y179919D02*
X27000Y179919D01*
X21457Y182215D01*
X17215Y186457D01*
X14919Y192000D01*
X14919Y213000D01*
X17215Y218543D01*
X21457Y222785D01*
X27000Y225081D01*
X213000Y225081D01*
X218543Y222785D01*
X222785Y218543D01*
X225081Y213000D01*
X225081Y192000D01*
X222785Y186457D01*
X218543Y182215D01*
X213000Y179919D01*
X27000Y179919D01*
G37*
%LPD*%
%LPC*%
G36*
X510380Y429647D02*
X510380Y429647D01*
X506832Y431117D01*
X504117Y433832D01*
X502647Y437380D01*
X502647Y441220D01*
X504117Y444768D01*
X506739Y447390D01*
X506781Y447448D01*
X506830Y447500D01*
X506852Y447547D01*
X506882Y447589D01*
X506903Y447658D01*
X506934Y447723D01*
X506939Y447775D01*
X506955Y447825D01*
X506953Y447896D01*
X506961Y447967D01*
X506950Y448018D01*
X506948Y448070D01*
X506924Y448138D01*
X506908Y448208D01*
X506882Y448253D01*
X506864Y448301D01*
X506819Y448357D01*
X506782Y448419D01*
X506743Y448453D01*
X506710Y448493D01*
X506650Y448532D01*
X506595Y448579D01*
X506547Y448598D01*
X506503Y448626D01*
X506434Y448644D01*
X506367Y448671D01*
X506296Y448679D01*
X506265Y448687D01*
X506241Y448685D01*
X506200Y448689D01*
X383922Y448689D01*
X354589Y478022D01*
X354589Y485222D01*
X354570Y485337D01*
X354553Y485453D01*
X354551Y485458D01*
X354550Y485465D01*
X354495Y485567D01*
X354442Y485672D01*
X354437Y485676D01*
X354434Y485682D01*
X354350Y485762D01*
X354266Y485844D01*
X354260Y485848D01*
X354256Y485851D01*
X354239Y485859D01*
X354119Y485925D01*
X352932Y486417D01*
X350217Y489132D01*
X348747Y492680D01*
X348747Y496520D01*
X350217Y500068D01*
X352932Y502783D01*
X356480Y504253D01*
X360320Y504253D01*
X363868Y502783D01*
X366583Y500068D01*
X368053Y496520D01*
X368053Y492680D01*
X366583Y489132D01*
X363868Y486417D01*
X362681Y485925D01*
X362581Y485864D01*
X362481Y485804D01*
X362477Y485799D01*
X362472Y485795D01*
X362397Y485706D01*
X362321Y485617D01*
X362319Y485611D01*
X362315Y485606D01*
X362273Y485498D01*
X362229Y485388D01*
X362228Y485381D01*
X362227Y485376D01*
X362226Y485358D01*
X362211Y485222D01*
X362211Y481494D01*
X362225Y481404D01*
X362233Y481313D01*
X362245Y481283D01*
X362250Y481251D01*
X362293Y481170D01*
X362329Y481086D01*
X362355Y481054D01*
X362366Y481034D01*
X362389Y481011D01*
X362434Y480956D01*
X386856Y456534D01*
X386929Y456481D01*
X386999Y456421D01*
X387029Y456409D01*
X387055Y456390D01*
X387142Y456363D01*
X387227Y456329D01*
X387268Y456325D01*
X387290Y456318D01*
X387323Y456319D01*
X387394Y456311D01*
X505200Y456311D01*
X505271Y456322D01*
X505343Y456324D01*
X505392Y456342D01*
X505443Y456350D01*
X505507Y456384D01*
X505574Y456409D01*
X505615Y456441D01*
X505661Y456466D01*
X505710Y456518D01*
X505766Y456562D01*
X505794Y456606D01*
X505830Y456644D01*
X505860Y456709D01*
X505899Y456769D01*
X505912Y456820D01*
X505934Y456867D01*
X505941Y456938D01*
X505959Y457008D01*
X505955Y457060D01*
X505961Y457111D01*
X505945Y457182D01*
X505940Y457253D01*
X505919Y457301D01*
X505908Y457352D01*
X505872Y457413D01*
X505844Y457479D01*
X505799Y457535D01*
X505782Y457563D01*
X505764Y457578D01*
X505739Y457610D01*
X504937Y458412D01*
X504044Y459641D01*
X503354Y460995D01*
X502885Y462440D01*
X502768Y463177D01*
X511538Y463177D01*
X511558Y463180D01*
X511577Y463178D01*
X511679Y463200D01*
X511781Y463217D01*
X511798Y463226D01*
X511818Y463230D01*
X511907Y463283D01*
X511998Y463332D01*
X512012Y463346D01*
X512029Y463356D01*
X512096Y463435D01*
X512167Y463510D01*
X512176Y463528D01*
X512189Y463543D01*
X512227Y463639D01*
X512271Y463733D01*
X512273Y463753D01*
X512281Y463771D01*
X512299Y463938D01*
X512299Y465462D01*
X512296Y465482D01*
X512298Y465501D01*
X512276Y465603D01*
X512259Y465705D01*
X512250Y465722D01*
X512246Y465742D01*
X512193Y465831D01*
X512144Y465922D01*
X512130Y465936D01*
X512120Y465953D01*
X512041Y466020D01*
X511966Y466091D01*
X511948Y466100D01*
X511933Y466113D01*
X511837Y466152D01*
X511743Y466195D01*
X511723Y466197D01*
X511705Y466205D01*
X511538Y466223D01*
X502768Y466223D01*
X502885Y466960D01*
X503354Y468405D01*
X504044Y469759D01*
X504937Y470988D01*
X506012Y472063D01*
X506355Y472312D01*
X506361Y472318D01*
X506368Y472322D01*
X506447Y472405D01*
X506528Y472487D01*
X506532Y472494D01*
X506537Y472500D01*
X506586Y472605D01*
X506636Y472708D01*
X506637Y472716D01*
X506641Y472723D01*
X506653Y472838D01*
X506668Y472952D01*
X506667Y472960D01*
X506668Y472967D01*
X506643Y473080D01*
X506621Y473193D01*
X506617Y473200D01*
X506616Y473208D01*
X506557Y473306D01*
X506499Y473407D01*
X506493Y473412D01*
X506489Y473419D01*
X506402Y473493D01*
X506316Y473570D01*
X506309Y473574D01*
X506302Y473579D01*
X506194Y473622D01*
X506090Y473667D01*
X506082Y473668D01*
X506074Y473671D01*
X505908Y473689D01*
X489394Y473689D01*
X489304Y473675D01*
X489213Y473667D01*
X489183Y473655D01*
X489151Y473650D01*
X489070Y473607D01*
X488986Y473571D01*
X488954Y473545D01*
X488934Y473534D01*
X488911Y473511D01*
X488855Y473466D01*
X484034Y468644D01*
X481578Y466189D01*
X391822Y466189D01*
X379989Y478022D01*
X379989Y485222D01*
X379970Y485337D01*
X379953Y485453D01*
X379951Y485458D01*
X379950Y485465D01*
X379895Y485567D01*
X379842Y485672D01*
X379837Y485676D01*
X379834Y485682D01*
X379750Y485762D01*
X379666Y485844D01*
X379660Y485848D01*
X379656Y485851D01*
X379639Y485859D01*
X379519Y485925D01*
X378332Y486417D01*
X375617Y489132D01*
X374147Y492680D01*
X374147Y496520D01*
X375617Y500068D01*
X378332Y502783D01*
X381880Y504253D01*
X385720Y504253D01*
X389268Y502783D01*
X391640Y500411D01*
X391698Y500369D01*
X391750Y500320D01*
X391797Y500298D01*
X391839Y500268D01*
X391908Y500247D01*
X391973Y500216D01*
X392025Y500211D01*
X392075Y500195D01*
X392146Y500197D01*
X392217Y500189D01*
X392268Y500200D01*
X392320Y500202D01*
X392388Y500226D01*
X392458Y500242D01*
X392503Y500268D01*
X392551Y500286D01*
X392607Y500331D01*
X392669Y500368D01*
X392703Y500407D01*
X392743Y500440D01*
X392782Y500500D01*
X392829Y500555D01*
X392848Y500603D01*
X392876Y500647D01*
X392894Y500716D01*
X392921Y500783D01*
X392929Y500854D01*
X392937Y500885D01*
X392935Y500909D01*
X392939Y500950D01*
X392939Y505156D01*
X392925Y505246D01*
X392917Y505337D01*
X392905Y505367D01*
X392900Y505399D01*
X392857Y505480D01*
X392821Y505564D01*
X392795Y505596D01*
X392784Y505616D01*
X392761Y505639D01*
X392716Y505694D01*
X387737Y510674D01*
X387642Y510742D01*
X387548Y510812D01*
X387542Y510814D01*
X387537Y510818D01*
X387426Y510852D01*
X387314Y510888D01*
X387308Y510888D01*
X387302Y510890D01*
X387185Y510887D01*
X387068Y510886D01*
X387061Y510884D01*
X387056Y510884D01*
X387039Y510877D01*
X386907Y510839D01*
X385720Y510347D01*
X381880Y510347D01*
X378332Y511817D01*
X375617Y514532D01*
X374147Y518080D01*
X374147Y521920D01*
X375617Y525468D01*
X378332Y528183D01*
X381880Y529653D01*
X385720Y529653D01*
X389268Y528183D01*
X391983Y525468D01*
X393453Y521920D01*
X393453Y518080D01*
X392961Y516893D01*
X392953Y516857D01*
X392947Y516846D01*
X392945Y516825D01*
X392934Y516779D01*
X392906Y516666D01*
X392906Y516659D01*
X392905Y516653D01*
X392916Y516537D01*
X392925Y516420D01*
X392927Y516415D01*
X392928Y516408D01*
X392976Y516301D01*
X393021Y516194D01*
X393026Y516188D01*
X393028Y516184D01*
X393041Y516170D01*
X393126Y516063D01*
X400561Y508628D01*
X400561Y501450D01*
X400572Y501379D01*
X400574Y501307D01*
X400592Y501258D01*
X400600Y501207D01*
X400634Y501143D01*
X400659Y501076D01*
X400691Y501035D01*
X400716Y500989D01*
X400768Y500940D01*
X400812Y500884D01*
X400856Y500856D01*
X400894Y500820D01*
X400959Y500790D01*
X401019Y500751D01*
X401070Y500738D01*
X401117Y500716D01*
X401188Y500709D01*
X401258Y500691D01*
X401310Y500695D01*
X401361Y500689D01*
X401432Y500705D01*
X401503Y500710D01*
X401551Y500730D01*
X401602Y500742D01*
X401663Y500778D01*
X401729Y500806D01*
X401785Y500851D01*
X401813Y500868D01*
X401828Y500886D01*
X401860Y500911D01*
X403732Y502783D01*
X407280Y504253D01*
X411120Y504253D01*
X414668Y502783D01*
X417383Y500068D01*
X418853Y496520D01*
X418853Y492680D01*
X417383Y489132D01*
X414668Y486417D01*
X411912Y485275D01*
X411829Y485224D01*
X411743Y485178D01*
X411725Y485159D01*
X411703Y485146D01*
X411641Y485071D01*
X411574Y485000D01*
X411563Y484976D01*
X411546Y484956D01*
X411511Y484865D01*
X411470Y484777D01*
X411467Y484751D01*
X411458Y484727D01*
X411454Y484629D01*
X411443Y484533D01*
X411449Y484507D01*
X411447Y484481D01*
X411475Y484387D01*
X411495Y484292D01*
X411509Y484270D01*
X411516Y484245D01*
X411571Y484165D01*
X411621Y484081D01*
X411641Y484064D01*
X411656Y484043D01*
X411734Y483984D01*
X411808Y483921D01*
X411833Y483911D01*
X411854Y483896D01*
X411946Y483866D01*
X412037Y483829D01*
X412069Y483826D01*
X412087Y483820D01*
X412121Y483820D01*
X412203Y483811D01*
X431597Y483811D01*
X431693Y483826D01*
X431790Y483836D01*
X431814Y483846D01*
X431840Y483850D01*
X431925Y483896D01*
X432015Y483936D01*
X432034Y483953D01*
X432057Y483966D01*
X432124Y484036D01*
X432196Y484102D01*
X432208Y484125D01*
X432226Y484144D01*
X432267Y484232D01*
X432314Y484318D01*
X432319Y484343D01*
X432330Y484367D01*
X432341Y484463D01*
X432358Y484560D01*
X432354Y484586D01*
X432357Y484611D01*
X432336Y484707D01*
X432322Y484803D01*
X432310Y484826D01*
X432305Y484852D01*
X432255Y484935D01*
X432211Y485022D01*
X432192Y485041D01*
X432179Y485063D01*
X432105Y485126D01*
X432035Y485194D01*
X432006Y485210D01*
X431992Y485223D01*
X431961Y485235D01*
X431888Y485275D01*
X429132Y486417D01*
X426417Y489132D01*
X424947Y492680D01*
X424947Y496520D01*
X426417Y500068D01*
X429132Y502783D01*
X432680Y504253D01*
X436520Y504253D01*
X440068Y502783D01*
X442783Y500068D01*
X444253Y496520D01*
X444253Y492680D01*
X442783Y489132D01*
X440068Y486417D01*
X437312Y485275D01*
X437229Y485224D01*
X437143Y485178D01*
X437125Y485159D01*
X437103Y485146D01*
X437041Y485071D01*
X436974Y485000D01*
X436963Y484976D01*
X436946Y484956D01*
X436911Y484865D01*
X436870Y484777D01*
X436867Y484751D01*
X436858Y484727D01*
X436854Y484629D01*
X436843Y484533D01*
X436849Y484507D01*
X436847Y484481D01*
X436875Y484387D01*
X436895Y484292D01*
X436909Y484270D01*
X436916Y484245D01*
X436971Y484165D01*
X437021Y484081D01*
X437041Y484064D01*
X437056Y484043D01*
X437134Y483984D01*
X437208Y483921D01*
X437233Y483911D01*
X437254Y483896D01*
X437346Y483866D01*
X437437Y483829D01*
X437469Y483826D01*
X437487Y483820D01*
X437521Y483820D01*
X437603Y483811D01*
X456997Y483811D01*
X457093Y483826D01*
X457190Y483836D01*
X457214Y483846D01*
X457240Y483850D01*
X457325Y483896D01*
X457415Y483936D01*
X457434Y483953D01*
X457457Y483966D01*
X457524Y484036D01*
X457596Y484102D01*
X457608Y484125D01*
X457626Y484144D01*
X457667Y484232D01*
X457714Y484318D01*
X457719Y484343D01*
X457730Y484367D01*
X457741Y484463D01*
X457758Y484560D01*
X457754Y484586D01*
X457757Y484611D01*
X457736Y484707D01*
X457722Y484803D01*
X457710Y484826D01*
X457705Y484852D01*
X457655Y484935D01*
X457611Y485022D01*
X457592Y485041D01*
X457579Y485063D01*
X457505Y485126D01*
X457435Y485194D01*
X457406Y485210D01*
X457392Y485223D01*
X457361Y485235D01*
X457288Y485275D01*
X454532Y486417D01*
X451817Y489132D01*
X450347Y492680D01*
X450347Y496520D01*
X451817Y500068D01*
X454532Y502783D01*
X458080Y504253D01*
X461920Y504253D01*
X465468Y502783D01*
X468183Y500068D01*
X469653Y496520D01*
X469653Y492680D01*
X468183Y489132D01*
X465468Y486417D01*
X462712Y485275D01*
X462629Y485224D01*
X462543Y485178D01*
X462525Y485159D01*
X462503Y485146D01*
X462441Y485071D01*
X462374Y485000D01*
X462363Y484976D01*
X462346Y484956D01*
X462311Y484865D01*
X462270Y484777D01*
X462267Y484751D01*
X462258Y484727D01*
X462254Y484629D01*
X462243Y484533D01*
X462249Y484507D01*
X462247Y484481D01*
X462275Y484387D01*
X462295Y484292D01*
X462309Y484270D01*
X462316Y484245D01*
X462371Y484165D01*
X462421Y484081D01*
X462441Y484064D01*
X462456Y484043D01*
X462534Y483984D01*
X462608Y483921D01*
X462633Y483911D01*
X462654Y483896D01*
X462746Y483866D01*
X462837Y483829D01*
X462869Y483826D01*
X462887Y483820D01*
X462921Y483820D01*
X463003Y483811D01*
X473106Y483811D01*
X473196Y483825D01*
X473287Y483833D01*
X473317Y483845D01*
X473349Y483850D01*
X473430Y483893D01*
X473514Y483929D01*
X473546Y483955D01*
X473566Y483966D01*
X473589Y483989D01*
X473644Y484034D01*
X483522Y493911D01*
X502922Y493911D01*
X503037Y493930D01*
X503153Y493947D01*
X503158Y493949D01*
X503165Y493950D01*
X503267Y494005D01*
X503372Y494058D01*
X503376Y494063D01*
X503382Y494066D01*
X503462Y494150D01*
X503544Y494234D01*
X503548Y494240D01*
X503551Y494244D01*
X503559Y494261D01*
X503625Y494381D01*
X504117Y495568D01*
X506832Y498283D01*
X510380Y499753D01*
X514220Y499753D01*
X517768Y498283D01*
X520483Y495568D01*
X521953Y492020D01*
X521953Y488180D01*
X520483Y484632D01*
X518461Y482610D01*
X518419Y482552D01*
X518370Y482500D01*
X518348Y482453D01*
X518318Y482411D01*
X518297Y482342D01*
X518266Y482277D01*
X518261Y482225D01*
X518245Y482175D01*
X518247Y482104D01*
X518239Y482033D01*
X518250Y481982D01*
X518252Y481930D01*
X518276Y481862D01*
X518292Y481792D01*
X518318Y481747D01*
X518336Y481699D01*
X518381Y481643D01*
X518418Y481581D01*
X518457Y481547D01*
X518490Y481507D01*
X518550Y481468D01*
X518605Y481421D01*
X518653Y481402D01*
X518697Y481374D01*
X518766Y481356D01*
X518833Y481329D01*
X518904Y481321D01*
X518935Y481313D01*
X518959Y481315D01*
X519000Y481311D01*
X523206Y481311D01*
X523296Y481325D01*
X523387Y481333D01*
X523417Y481345D01*
X523449Y481350D01*
X523530Y481393D01*
X523614Y481429D01*
X523646Y481455D01*
X523666Y481466D01*
X523689Y481489D01*
X523745Y481534D01*
X528374Y486163D01*
X528442Y486258D01*
X528512Y486352D01*
X528514Y486358D01*
X528518Y486363D01*
X528552Y486475D01*
X528588Y486586D01*
X528588Y486592D01*
X528590Y486598D01*
X528587Y486715D01*
X528586Y486832D01*
X528584Y486839D01*
X528584Y486844D01*
X528577Y486861D01*
X528539Y486993D01*
X528047Y488180D01*
X528047Y492020D01*
X529517Y495568D01*
X532232Y498283D01*
X535780Y499753D01*
X539620Y499753D01*
X543168Y498283D01*
X545883Y495568D01*
X547353Y492020D01*
X547353Y488180D01*
X545883Y484632D01*
X543168Y481917D01*
X539620Y480447D01*
X535780Y480447D01*
X534593Y480939D01*
X534479Y480966D01*
X534366Y480994D01*
X534359Y480994D01*
X534353Y480995D01*
X534237Y480984D01*
X534120Y480975D01*
X534115Y480973D01*
X534108Y480972D01*
X534001Y480924D01*
X533894Y480879D01*
X533888Y480874D01*
X533884Y480872D01*
X533870Y480859D01*
X533763Y480774D01*
X529134Y476145D01*
X529134Y476144D01*
X526678Y473689D01*
X518692Y473689D01*
X518685Y473688D01*
X518677Y473689D01*
X518563Y473668D01*
X518450Y473650D01*
X518443Y473646D01*
X518435Y473644D01*
X518333Y473588D01*
X518232Y473534D01*
X518227Y473529D01*
X518220Y473525D01*
X518142Y473439D01*
X518063Y473356D01*
X518060Y473349D01*
X518054Y473343D01*
X518008Y473238D01*
X517959Y473133D01*
X517958Y473125D01*
X517955Y473118D01*
X517945Y473003D01*
X517932Y472889D01*
X517934Y472881D01*
X517933Y472873D01*
X517960Y472760D01*
X517984Y472648D01*
X517989Y472641D01*
X517990Y472634D01*
X518052Y472536D01*
X518111Y472437D01*
X518117Y472432D01*
X518121Y472425D01*
X518245Y472312D01*
X518588Y472063D01*
X519663Y470988D01*
X520556Y469759D01*
X521246Y468405D01*
X521715Y466960D01*
X521832Y466223D01*
X513062Y466223D01*
X513042Y466220D01*
X513023Y466222D01*
X512921Y466200D01*
X512819Y466183D01*
X512802Y466174D01*
X512782Y466170D01*
X512693Y466117D01*
X512602Y466068D01*
X512588Y466054D01*
X512571Y466044D01*
X512504Y465965D01*
X512433Y465890D01*
X512424Y465872D01*
X512411Y465857D01*
X512373Y465761D01*
X512329Y465667D01*
X512327Y465647D01*
X512319Y465629D01*
X512301Y465462D01*
X512301Y463938D01*
X512304Y463918D01*
X512302Y463899D01*
X512324Y463797D01*
X512341Y463695D01*
X512350Y463678D01*
X512354Y463658D01*
X512407Y463569D01*
X512456Y463478D01*
X512470Y463464D01*
X512480Y463447D01*
X512559Y463380D01*
X512634Y463309D01*
X512652Y463300D01*
X512667Y463287D01*
X512763Y463248D01*
X512857Y463205D01*
X512877Y463203D01*
X512895Y463195D01*
X513062Y463177D01*
X521832Y463177D01*
X521715Y462440D01*
X521246Y460995D01*
X520556Y459641D01*
X519663Y458412D01*
X518861Y457610D01*
X518819Y457552D01*
X518770Y457500D01*
X518748Y457453D01*
X518718Y457411D01*
X518697Y457342D01*
X518666Y457277D01*
X518661Y457225D01*
X518645Y457175D01*
X518647Y457104D01*
X518639Y457033D01*
X518650Y456982D01*
X518652Y456930D01*
X518676Y456862D01*
X518692Y456792D01*
X518718Y456747D01*
X518736Y456699D01*
X518781Y456643D01*
X518818Y456581D01*
X518857Y456547D01*
X518890Y456507D01*
X518950Y456468D01*
X519005Y456421D01*
X519053Y456402D01*
X519097Y456374D01*
X519166Y456356D01*
X519233Y456329D01*
X519304Y456321D01*
X519335Y456313D01*
X519359Y456315D01*
X519400Y456311D01*
X523106Y456311D01*
X523196Y456325D01*
X523287Y456333D01*
X523317Y456345D01*
X523349Y456350D01*
X523430Y456393D01*
X523514Y456429D01*
X523546Y456455D01*
X523566Y456466D01*
X523589Y456489D01*
X523644Y456534D01*
X528228Y461117D01*
X528296Y461212D01*
X528365Y461305D01*
X528367Y461311D01*
X528371Y461316D01*
X528405Y461428D01*
X528442Y461539D01*
X528442Y461546D01*
X528443Y461552D01*
X528440Y461668D01*
X528439Y461785D01*
X528437Y461792D01*
X528437Y461797D01*
X528431Y461815D01*
X528393Y461946D01*
X528047Y462780D01*
X528047Y466620D01*
X529517Y470168D01*
X532232Y472883D01*
X535780Y474353D01*
X539620Y474353D01*
X543168Y472883D01*
X545883Y470168D01*
X547353Y466620D01*
X547353Y462780D01*
X545883Y459232D01*
X543168Y456517D01*
X539620Y455047D01*
X535780Y455047D01*
X534239Y455685D01*
X534175Y455701D01*
X534121Y455722D01*
X534057Y455729D01*
X534012Y455741D01*
X534006Y455740D01*
X534000Y455742D01*
X533971Y455739D01*
X533954Y455741D01*
X533945Y455741D01*
X533884Y455731D01*
X533883Y455731D01*
X533767Y455722D01*
X533761Y455719D01*
X533755Y455719D01*
X533723Y455704D01*
X533702Y455701D01*
X533637Y455666D01*
X533541Y455625D01*
X533535Y455621D01*
X533530Y455619D01*
X533516Y455606D01*
X533504Y455596D01*
X533485Y455586D01*
X533465Y455565D01*
X533410Y455520D01*
X529034Y451144D01*
X526578Y448689D01*
X518400Y448689D01*
X518329Y448678D01*
X518257Y448676D01*
X518208Y448658D01*
X518157Y448650D01*
X518093Y448616D01*
X518026Y448591D01*
X517985Y448559D01*
X517939Y448534D01*
X517890Y448482D01*
X517834Y448438D01*
X517806Y448394D01*
X517770Y448356D01*
X517740Y448291D01*
X517701Y448231D01*
X517688Y448180D01*
X517666Y448133D01*
X517659Y448062D01*
X517641Y447992D01*
X517645Y447940D01*
X517639Y447889D01*
X517655Y447818D01*
X517660Y447747D01*
X517680Y447699D01*
X517692Y447648D01*
X517728Y447587D01*
X517756Y447521D01*
X517801Y447465D01*
X517818Y447437D01*
X517836Y447422D01*
X517861Y447390D01*
X520483Y444768D01*
X521953Y441220D01*
X521953Y437380D01*
X520483Y433832D01*
X517768Y431117D01*
X514220Y429647D01*
X510380Y429647D01*
G37*
%LPD*%
%LPC*%
G36*
X356480Y510347D02*
X356480Y510347D01*
X352932Y511817D01*
X350217Y514532D01*
X348747Y518080D01*
X348747Y521920D01*
X350217Y525468D01*
X352932Y528183D01*
X354119Y528675D01*
X354219Y528736D01*
X354319Y528796D01*
X354323Y528801D01*
X354328Y528805D01*
X354403Y528894D01*
X354479Y528983D01*
X354481Y528989D01*
X354485Y528994D01*
X354527Y529102D01*
X354571Y529212D01*
X354572Y529219D01*
X354573Y529224D01*
X354574Y529242D01*
X354589Y529378D01*
X354589Y589978D01*
X378422Y613811D01*
X431578Y613811D01*
X461356Y584034D01*
X461429Y583981D01*
X461499Y583921D01*
X461529Y583909D01*
X461555Y583890D01*
X461642Y583863D01*
X461727Y583829D01*
X461768Y583825D01*
X461790Y583818D01*
X461823Y583819D01*
X461894Y583811D01*
X519078Y583811D01*
X528811Y574078D01*
X528811Y572900D01*
X528822Y572829D01*
X528824Y572757D01*
X528842Y572708D01*
X528850Y572657D01*
X528884Y572593D01*
X528909Y572526D01*
X528941Y572485D01*
X528966Y572439D01*
X529018Y572390D01*
X529062Y572334D01*
X529106Y572306D01*
X529144Y572270D01*
X529209Y572240D01*
X529269Y572201D01*
X529320Y572188D01*
X529367Y572166D01*
X529438Y572159D01*
X529508Y572141D01*
X529560Y572145D01*
X529611Y572139D01*
X529682Y572155D01*
X529753Y572160D01*
X529801Y572180D01*
X529852Y572192D01*
X529913Y572228D01*
X529979Y572256D01*
X530035Y572301D01*
X530063Y572318D01*
X530078Y572336D01*
X530110Y572361D01*
X532232Y574483D01*
X535780Y575953D01*
X539620Y575953D01*
X543168Y574483D01*
X545883Y571768D01*
X547353Y568220D01*
X547353Y564380D01*
X545883Y560832D01*
X543168Y558117D01*
X539620Y556647D01*
X535780Y556647D01*
X532232Y558117D01*
X530110Y560239D01*
X530052Y560281D01*
X530000Y560330D01*
X529953Y560352D01*
X529911Y560382D01*
X529842Y560403D01*
X529777Y560434D01*
X529725Y560439D01*
X529675Y560455D01*
X529604Y560453D01*
X529533Y560461D01*
X529482Y560450D01*
X529430Y560448D01*
X529362Y560424D01*
X529292Y560408D01*
X529247Y560382D01*
X529199Y560364D01*
X529143Y560319D01*
X529081Y560282D01*
X529047Y560243D01*
X529007Y560210D01*
X528968Y560150D01*
X528921Y560095D01*
X528902Y560047D01*
X528874Y560003D01*
X528856Y559934D01*
X528829Y559867D01*
X528821Y559796D01*
X528813Y559765D01*
X528815Y559741D01*
X528811Y559700D01*
X528811Y552022D01*
X521626Y544837D01*
X521558Y544742D01*
X521488Y544648D01*
X521486Y544642D01*
X521482Y544637D01*
X521448Y544526D01*
X521412Y544414D01*
X521412Y544408D01*
X521410Y544402D01*
X521413Y544285D01*
X521414Y544168D01*
X521416Y544161D01*
X521416Y544156D01*
X521423Y544139D01*
X521461Y544007D01*
X521953Y542820D01*
X521953Y538980D01*
X520483Y535432D01*
X517768Y532717D01*
X514220Y531247D01*
X510380Y531247D01*
X506832Y532717D01*
X504117Y535432D01*
X502647Y538980D01*
X502647Y542820D01*
X504117Y546368D01*
X506832Y549083D01*
X510380Y550553D01*
X514220Y550553D01*
X515407Y550061D01*
X515521Y550034D01*
X515634Y550006D01*
X515641Y550006D01*
X515647Y550005D01*
X515763Y550016D01*
X515880Y550025D01*
X515885Y550027D01*
X515892Y550028D01*
X515999Y550076D01*
X516106Y550121D01*
X516112Y550126D01*
X516116Y550128D01*
X516130Y550141D01*
X516237Y550226D01*
X520966Y554956D01*
X521013Y555020D01*
X521028Y555036D01*
X521032Y555044D01*
X521079Y555099D01*
X521091Y555129D01*
X521110Y555155D01*
X521137Y555242D01*
X521171Y555327D01*
X521175Y555368D01*
X521182Y555390D01*
X521181Y555423D01*
X521189Y555494D01*
X521189Y559700D01*
X521178Y559771D01*
X521176Y559843D01*
X521158Y559892D01*
X521150Y559943D01*
X521116Y560007D01*
X521091Y560074D01*
X521059Y560115D01*
X521034Y560161D01*
X520982Y560210D01*
X520938Y560266D01*
X520894Y560294D01*
X520856Y560330D01*
X520791Y560360D01*
X520731Y560399D01*
X520680Y560412D01*
X520633Y560434D01*
X520562Y560441D01*
X520492Y560459D01*
X520440Y560455D01*
X520389Y560461D01*
X520318Y560445D01*
X520247Y560440D01*
X520199Y560420D01*
X520148Y560408D01*
X520087Y560372D01*
X520021Y560344D01*
X519965Y560299D01*
X519937Y560282D01*
X519922Y560264D01*
X519890Y560239D01*
X517768Y558117D01*
X514220Y556647D01*
X510319Y556647D01*
X510236Y556668D01*
X510230Y556668D01*
X510224Y556669D01*
X510106Y556658D01*
X509990Y556649D01*
X509985Y556647D01*
X509979Y556646D01*
X509871Y556598D01*
X509764Y556553D01*
X509758Y556548D01*
X509754Y556546D01*
X509740Y556534D01*
X509633Y556448D01*
X502254Y549068D01*
X499055Y545869D01*
X418514Y545869D01*
X418494Y545866D01*
X418475Y545868D01*
X418373Y545846D01*
X418271Y545830D01*
X418254Y545820D01*
X418234Y545816D01*
X418145Y545763D01*
X418054Y545714D01*
X418040Y545700D01*
X418023Y545690D01*
X417956Y545611D01*
X417884Y545536D01*
X417876Y545518D01*
X417863Y545503D01*
X417824Y545407D01*
X417781Y545313D01*
X417779Y545293D01*
X417771Y545275D01*
X417753Y545108D01*
X417753Y542786D01*
X416264Y541297D01*
X415042Y541297D01*
X415022Y541294D01*
X415003Y541296D01*
X414901Y541274D01*
X414799Y541258D01*
X414782Y541248D01*
X414762Y541244D01*
X414673Y541191D01*
X414582Y541142D01*
X414568Y541128D01*
X414551Y541118D01*
X414484Y541039D01*
X414412Y540964D01*
X414404Y540946D01*
X414391Y540931D01*
X414352Y540835D01*
X414309Y540741D01*
X414307Y540721D01*
X414299Y540703D01*
X414281Y540536D01*
X414281Y528852D01*
X414300Y528737D01*
X414317Y528621D01*
X414319Y528616D01*
X414320Y528609D01*
X414375Y528506D01*
X414428Y528402D01*
X414433Y528398D01*
X414436Y528392D01*
X414520Y528312D01*
X414604Y528230D01*
X414610Y528226D01*
X414614Y528223D01*
X414631Y528215D01*
X414643Y528208D01*
X417383Y525468D01*
X418853Y521920D01*
X418853Y518080D01*
X417383Y514532D01*
X414668Y511817D01*
X411120Y510347D01*
X407280Y510347D01*
X403732Y511817D01*
X401017Y514532D01*
X399547Y518080D01*
X399547Y521920D01*
X401017Y525468D01*
X403775Y528226D01*
X403849Y528270D01*
X403853Y528275D01*
X403858Y528278D01*
X403933Y528369D01*
X404009Y528457D01*
X404011Y528463D01*
X404015Y528468D01*
X404057Y528577D01*
X404101Y528685D01*
X404102Y528693D01*
X404103Y528697D01*
X404104Y528716D01*
X404119Y528852D01*
X404119Y540536D01*
X404116Y540556D01*
X404118Y540575D01*
X404096Y540677D01*
X404080Y540779D01*
X404070Y540796D01*
X404066Y540816D01*
X404013Y540905D01*
X403964Y540996D01*
X403950Y541010D01*
X403940Y541027D01*
X403861Y541094D01*
X403786Y541166D01*
X403768Y541174D01*
X403753Y541187D01*
X403657Y541226D01*
X403563Y541269D01*
X403543Y541271D01*
X403525Y541279D01*
X403358Y541297D01*
X399936Y541297D01*
X398447Y542786D01*
X398447Y559114D01*
X399936Y560603D01*
X402008Y560603D01*
X402079Y560614D01*
X402151Y560616D01*
X402200Y560634D01*
X402251Y560642D01*
X402315Y560676D01*
X402382Y560701D01*
X402423Y560733D01*
X402469Y560758D01*
X402518Y560810D01*
X402574Y560854D01*
X402602Y560898D01*
X402638Y560936D01*
X402668Y561001D01*
X402707Y561061D01*
X402720Y561112D01*
X402742Y561159D01*
X402749Y561230D01*
X402767Y561300D01*
X402763Y561352D01*
X402769Y561403D01*
X402753Y561474D01*
X402748Y561545D01*
X402728Y561593D01*
X402716Y561644D01*
X402680Y561705D01*
X402652Y561771D01*
X402607Y561827D01*
X402590Y561855D01*
X402572Y561870D01*
X402547Y561902D01*
X399917Y564532D01*
X398447Y568080D01*
X398447Y571920D01*
X399917Y575468D01*
X402632Y578183D01*
X404159Y578815D01*
X404194Y578838D01*
X404234Y578852D01*
X404298Y578902D01*
X404368Y578945D01*
X404395Y578977D01*
X404428Y579003D01*
X404472Y579072D01*
X404525Y579135D01*
X404540Y579174D01*
X404563Y579209D01*
X404583Y579288D01*
X404613Y579364D01*
X404615Y579406D01*
X404625Y579447D01*
X404620Y579528D01*
X404623Y579610D01*
X404611Y579650D01*
X404609Y579692D01*
X404577Y579768D01*
X404555Y579846D01*
X404531Y579881D01*
X404515Y579919D01*
X404461Y579981D01*
X404414Y580048D01*
X404381Y580073D01*
X404353Y580105D01*
X404224Y580190D01*
X404217Y580195D01*
X404215Y580196D01*
X404213Y580197D01*
X403041Y580794D01*
X401812Y581687D01*
X400737Y582762D01*
X399844Y583991D01*
X399154Y585345D01*
X398685Y586790D01*
X398568Y587527D01*
X407338Y587527D01*
X407358Y587530D01*
X407377Y587528D01*
X407479Y587550D01*
X407581Y587567D01*
X407598Y587576D01*
X407618Y587580D01*
X407707Y587633D01*
X407798Y587682D01*
X407812Y587696D01*
X407829Y587706D01*
X407896Y587785D01*
X407967Y587860D01*
X407976Y587878D01*
X407989Y587893D01*
X408027Y587989D01*
X408071Y588083D01*
X408073Y588103D01*
X408081Y588121D01*
X408099Y588288D01*
X408099Y589051D01*
X408101Y589051D01*
X408101Y588288D01*
X408104Y588268D01*
X408102Y588249D01*
X408124Y588147D01*
X408141Y588045D01*
X408150Y588028D01*
X408154Y588008D01*
X408207Y587919D01*
X408256Y587828D01*
X408270Y587814D01*
X408280Y587797D01*
X408359Y587730D01*
X408434Y587659D01*
X408452Y587650D01*
X408467Y587637D01*
X408563Y587598D01*
X408657Y587555D01*
X408677Y587553D01*
X408695Y587545D01*
X408862Y587527D01*
X417632Y587527D01*
X417515Y586790D01*
X417046Y585345D01*
X416356Y583991D01*
X415463Y582762D01*
X414388Y581687D01*
X413159Y580794D01*
X411987Y580197D01*
X411953Y580172D01*
X411915Y580155D01*
X411855Y580100D01*
X411789Y580051D01*
X411765Y580017D01*
X411734Y579989D01*
X411694Y579917D01*
X411647Y579850D01*
X411635Y579810D01*
X411615Y579773D01*
X411601Y579693D01*
X411577Y579614D01*
X411579Y579573D01*
X411571Y579531D01*
X411583Y579450D01*
X411586Y579369D01*
X411601Y579329D01*
X411607Y579288D01*
X411644Y579215D01*
X411673Y579138D01*
X411700Y579106D01*
X411719Y579069D01*
X411777Y579011D01*
X411829Y578948D01*
X411864Y578926D01*
X411894Y578896D01*
X412030Y578822D01*
X412037Y578817D01*
X412039Y578817D01*
X412041Y578815D01*
X413568Y578183D01*
X416283Y575468D01*
X417753Y571920D01*
X417753Y568080D01*
X416283Y564532D01*
X413653Y561902D01*
X413611Y561844D01*
X413562Y561792D01*
X413540Y561745D01*
X413510Y561703D01*
X413489Y561634D01*
X413458Y561569D01*
X413453Y561517D01*
X413437Y561467D01*
X413439Y561396D01*
X413431Y561325D01*
X413442Y561274D01*
X413444Y561222D01*
X413468Y561154D01*
X413484Y561084D01*
X413510Y561039D01*
X413528Y560991D01*
X413573Y560935D01*
X413610Y560873D01*
X413649Y560839D01*
X413682Y560799D01*
X413742Y560760D01*
X413797Y560713D01*
X413845Y560694D01*
X413889Y560666D01*
X413958Y560648D01*
X414025Y560621D01*
X414096Y560613D01*
X414127Y560605D01*
X414151Y560607D01*
X414192Y560603D01*
X416264Y560603D01*
X417753Y559114D01*
X417753Y556792D01*
X417756Y556772D01*
X417754Y556753D01*
X417776Y556651D01*
X417792Y556549D01*
X417802Y556532D01*
X417806Y556512D01*
X417859Y556423D01*
X417908Y556332D01*
X417922Y556318D01*
X417932Y556301D01*
X418011Y556234D01*
X418086Y556162D01*
X418104Y556154D01*
X418119Y556141D01*
X418215Y556102D01*
X418309Y556059D01*
X418329Y556057D01*
X418347Y556049D01*
X418514Y556031D01*
X494530Y556031D01*
X494620Y556045D01*
X494711Y556053D01*
X494741Y556065D01*
X494773Y556070D01*
X494854Y556113D01*
X494937Y556149D01*
X494970Y556175D01*
X494990Y556186D01*
X495012Y556209D01*
X495068Y556254D01*
X502448Y563633D01*
X502516Y563728D01*
X502586Y563822D01*
X502588Y563828D01*
X502591Y563833D01*
X502626Y563945D01*
X502662Y564056D01*
X502662Y564062D01*
X502664Y564068D01*
X502661Y564185D01*
X502660Y564302D01*
X502658Y564309D01*
X502657Y564314D01*
X502651Y564331D01*
X502647Y564345D01*
X502647Y568220D01*
X504117Y571768D01*
X506832Y574483D01*
X507415Y574725D01*
X507498Y574776D01*
X507584Y574822D01*
X507602Y574840D01*
X507624Y574854D01*
X507687Y574930D01*
X507753Y575000D01*
X507764Y575024D01*
X507781Y575044D01*
X507816Y575135D01*
X507857Y575223D01*
X507860Y575249D01*
X507869Y575273D01*
X507873Y575371D01*
X507884Y575467D01*
X507879Y575493D01*
X507880Y575519D01*
X507853Y575613D01*
X507832Y575708D01*
X507818Y575730D01*
X507811Y575755D01*
X507756Y575835D01*
X507706Y575919D01*
X507686Y575936D01*
X507671Y575957D01*
X507593Y576016D01*
X507519Y576079D01*
X507495Y576089D01*
X507474Y576104D01*
X507381Y576134D01*
X507291Y576171D01*
X507258Y576174D01*
X507240Y576180D01*
X507207Y576180D01*
X507124Y576189D01*
X458422Y576189D01*
X428644Y605966D01*
X428571Y606019D01*
X428501Y606079D01*
X428471Y606091D01*
X428445Y606110D01*
X428358Y606137D01*
X428273Y606171D01*
X428232Y606175D01*
X428210Y606182D01*
X428177Y606181D01*
X428106Y606189D01*
X381894Y606189D01*
X381804Y606175D01*
X381713Y606167D01*
X381683Y606155D01*
X381651Y606150D01*
X381570Y606107D01*
X381486Y606071D01*
X381454Y606045D01*
X381434Y606034D01*
X381411Y606011D01*
X381356Y605966D01*
X362434Y587044D01*
X362381Y586971D01*
X362321Y586901D01*
X362309Y586871D01*
X362290Y586845D01*
X362263Y586758D01*
X362229Y586673D01*
X362225Y586632D01*
X362218Y586610D01*
X362219Y586577D01*
X362211Y586506D01*
X362211Y529378D01*
X362230Y529263D01*
X362247Y529147D01*
X362249Y529142D01*
X362250Y529135D01*
X362305Y529033D01*
X362358Y528928D01*
X362363Y528924D01*
X362366Y528918D01*
X362450Y528838D01*
X362534Y528756D01*
X362540Y528752D01*
X362544Y528749D01*
X362561Y528741D01*
X362681Y528675D01*
X363868Y528183D01*
X366583Y525468D01*
X368053Y521920D01*
X368053Y518080D01*
X366583Y514532D01*
X363868Y511817D01*
X360320Y510347D01*
X356480Y510347D01*
G37*
%LPD*%
%LPC*%
G36*
X216327Y279077D02*
X216327Y279077D01*
X212313Y280740D01*
X210897Y282156D01*
X210823Y282209D01*
X210753Y282269D01*
X210723Y282281D01*
X210697Y282300D01*
X210610Y282327D01*
X210525Y282361D01*
X210484Y282365D01*
X210462Y282372D01*
X210430Y282371D01*
X210358Y282379D01*
X198484Y282379D01*
X195683Y283539D01*
X178539Y300683D01*
X177379Y303484D01*
X177379Y346516D01*
X178539Y349317D01*
X180790Y351567D01*
X180790Y351568D01*
X193032Y363810D01*
X195283Y366061D01*
X198084Y367221D01*
X208654Y367221D01*
X208744Y367235D01*
X208835Y367243D01*
X208865Y367255D01*
X208897Y367260D01*
X208978Y367303D01*
X209062Y367339D01*
X209094Y367365D01*
X209115Y367376D01*
X209137Y367399D01*
X209193Y367444D01*
X209532Y367783D01*
X213080Y369253D01*
X216920Y369253D01*
X220468Y367783D01*
X223183Y365068D01*
X224653Y361520D01*
X224653Y357680D01*
X223183Y354132D01*
X220468Y351417D01*
X216920Y349947D01*
X213080Y349947D01*
X209532Y351417D01*
X209193Y351756D01*
X209119Y351809D01*
X209049Y351869D01*
X209019Y351881D01*
X208993Y351900D01*
X208906Y351927D01*
X208821Y351961D01*
X208780Y351965D01*
X208758Y351972D01*
X208726Y351971D01*
X208654Y351979D01*
X203072Y351979D01*
X202982Y351965D01*
X202891Y351957D01*
X202861Y351945D01*
X202829Y351940D01*
X202748Y351897D01*
X202665Y351861D01*
X202632Y351835D01*
X202612Y351824D01*
X202590Y351801D01*
X202534Y351756D01*
X192844Y342066D01*
X192798Y342003D01*
X192778Y341981D01*
X192774Y341973D01*
X192731Y341923D01*
X192719Y341893D01*
X192700Y341867D01*
X192673Y341780D01*
X192639Y341695D01*
X192635Y341654D01*
X192628Y341632D01*
X192629Y341599D01*
X192621Y341528D01*
X192621Y308472D01*
X192635Y308382D01*
X192643Y308291D01*
X192655Y308261D01*
X192660Y308229D01*
X192703Y308148D01*
X192739Y308065D01*
X192765Y308032D01*
X192776Y308012D01*
X192799Y307990D01*
X192844Y307934D01*
X202934Y297844D01*
X203008Y297791D01*
X203077Y297731D01*
X203107Y297719D01*
X203133Y297700D01*
X203220Y297673D01*
X203305Y297639D01*
X203346Y297635D01*
X203368Y297628D01*
X203401Y297629D01*
X203472Y297621D01*
X210358Y297621D01*
X210448Y297635D01*
X210539Y297643D01*
X210569Y297655D01*
X210601Y297660D01*
X210682Y297703D01*
X210766Y297739D01*
X210798Y297765D01*
X210818Y297776D01*
X210841Y297799D01*
X210897Y297844D01*
X212313Y299260D01*
X216327Y300923D01*
X220673Y300923D01*
X224687Y299260D01*
X227760Y296187D01*
X229423Y292173D01*
X229423Y287827D01*
X227760Y283813D01*
X224687Y280740D01*
X220673Y279077D01*
X216327Y279077D01*
G37*
%LPD*%
%LPC*%
G36*
X273080Y280347D02*
X273080Y280347D01*
X269532Y281817D01*
X266817Y284532D01*
X265347Y288080D01*
X265347Y291920D01*
X266817Y295468D01*
X269532Y298183D01*
X273080Y299653D01*
X276920Y299653D01*
X280468Y298183D01*
X280807Y297844D01*
X280881Y297790D01*
X280951Y297731D01*
X280981Y297719D01*
X281007Y297700D01*
X281094Y297673D01*
X281179Y297639D01*
X281220Y297635D01*
X281242Y297628D01*
X281274Y297629D01*
X281346Y297621D01*
X354628Y297621D01*
X354718Y297635D01*
X354809Y297643D01*
X354839Y297655D01*
X354871Y297660D01*
X354952Y297703D01*
X355035Y297739D01*
X355068Y297765D01*
X355088Y297776D01*
X355110Y297799D01*
X355166Y297844D01*
X364324Y307002D01*
X364377Y307076D01*
X364437Y307145D01*
X364449Y307175D01*
X364468Y307201D01*
X364495Y307288D01*
X364529Y307373D01*
X364533Y307414D01*
X364540Y307436D01*
X364539Y307469D01*
X364547Y307540D01*
X364547Y314264D01*
X366036Y315753D01*
X382364Y315753D01*
X383853Y314264D01*
X383853Y297936D01*
X382364Y296447D01*
X375640Y296447D01*
X375550Y296433D01*
X375459Y296425D01*
X375429Y296413D01*
X375397Y296408D01*
X375316Y296365D01*
X375233Y296329D01*
X375200Y296303D01*
X375180Y296292D01*
X375158Y296269D01*
X375102Y296224D01*
X362417Y283539D01*
X359616Y282379D01*
X281346Y282379D01*
X281256Y282365D01*
X281165Y282357D01*
X281135Y282345D01*
X281103Y282340D01*
X281022Y282297D01*
X280938Y282261D01*
X280906Y282235D01*
X280885Y282224D01*
X280863Y282201D01*
X280807Y282156D01*
X280468Y281817D01*
X276920Y280347D01*
X273080Y280347D01*
G37*
%LPD*%
%LPC*%
G36*
X40111Y265419D02*
X40111Y265419D01*
X31076Y269161D01*
X24161Y276076D01*
X20419Y285111D01*
X20419Y294889D01*
X24161Y303924D01*
X31076Y310839D01*
X40111Y314581D01*
X49889Y314581D01*
X58924Y310839D01*
X65839Y303924D01*
X69581Y294889D01*
X69581Y285111D01*
X65839Y276076D01*
X58924Y269161D01*
X49889Y265419D01*
X40111Y265419D01*
G37*
%LPD*%
%LPC*%
G36*
X356242Y426177D02*
X356242Y426177D01*
X353918Y427140D01*
X352140Y428918D01*
X351177Y431242D01*
X351177Y433118D01*
X351163Y433208D01*
X351155Y433299D01*
X351143Y433329D01*
X351138Y433361D01*
X351095Y433442D01*
X351059Y433526D01*
X351033Y433558D01*
X351022Y433578D01*
X350999Y433601D01*
X350954Y433656D01*
X316189Y468422D01*
X316189Y487700D01*
X316178Y487771D01*
X316176Y487843D01*
X316158Y487892D01*
X316150Y487943D01*
X316116Y488007D01*
X316091Y488074D01*
X316059Y488115D01*
X316034Y488161D01*
X315982Y488210D01*
X315938Y488266D01*
X315894Y488294D01*
X315856Y488330D01*
X315791Y488360D01*
X315731Y488399D01*
X315680Y488412D01*
X315633Y488434D01*
X315562Y488441D01*
X315492Y488459D01*
X315440Y488455D01*
X315389Y488461D01*
X315318Y488445D01*
X315247Y488440D01*
X315199Y488419D01*
X315148Y488408D01*
X315087Y488372D01*
X315021Y488344D01*
X314965Y488299D01*
X314937Y488282D01*
X314922Y488264D01*
X314890Y488239D01*
X313888Y487237D01*
X312659Y486344D01*
X311305Y485654D01*
X309860Y485185D01*
X309123Y485068D01*
X309123Y493838D01*
X309120Y493858D01*
X309122Y493877D01*
X309100Y493979D01*
X309083Y494081D01*
X309074Y494098D01*
X309070Y494118D01*
X309017Y494207D01*
X308968Y494298D01*
X308954Y494312D01*
X308944Y494329D01*
X308865Y494396D01*
X308790Y494467D01*
X308772Y494476D01*
X308757Y494489D01*
X308661Y494527D01*
X308567Y494571D01*
X308547Y494573D01*
X308529Y494581D01*
X308362Y494599D01*
X307599Y494599D01*
X307599Y494601D01*
X308362Y494601D01*
X308382Y494604D01*
X308401Y494602D01*
X308503Y494624D01*
X308605Y494641D01*
X308622Y494650D01*
X308642Y494654D01*
X308731Y494707D01*
X308822Y494756D01*
X308836Y494770D01*
X308853Y494780D01*
X308920Y494859D01*
X308991Y494934D01*
X309000Y494952D01*
X309013Y494967D01*
X309052Y495063D01*
X309095Y495157D01*
X309097Y495177D01*
X309105Y495195D01*
X309123Y495362D01*
X309123Y504132D01*
X309860Y504015D01*
X311305Y503546D01*
X312659Y502856D01*
X313888Y501963D01*
X314890Y500961D01*
X314948Y500919D01*
X315000Y500870D01*
X315047Y500848D01*
X315089Y500818D01*
X315158Y500797D01*
X315223Y500766D01*
X315275Y500761D01*
X315325Y500745D01*
X315396Y500747D01*
X315467Y500739D01*
X315518Y500750D01*
X315570Y500752D01*
X315638Y500776D01*
X315708Y500792D01*
X315753Y500818D01*
X315801Y500836D01*
X315857Y500881D01*
X315919Y500918D01*
X315953Y500957D01*
X315993Y500990D01*
X316032Y501050D01*
X316079Y501105D01*
X316098Y501153D01*
X316126Y501197D01*
X316144Y501266D01*
X316171Y501333D01*
X316179Y501404D01*
X316187Y501435D01*
X316185Y501459D01*
X316189Y501500D01*
X316189Y508578D01*
X323674Y516063D01*
X323742Y516158D01*
X323812Y516252D01*
X323814Y516258D01*
X323818Y516263D01*
X323852Y516374D01*
X323888Y516486D01*
X323888Y516492D01*
X323890Y516498D01*
X323887Y516615D01*
X323886Y516732D01*
X323884Y516739D01*
X323884Y516744D01*
X323877Y516761D01*
X323839Y516893D01*
X323347Y518080D01*
X323347Y521920D01*
X324817Y525468D01*
X327532Y528183D01*
X331080Y529653D01*
X334920Y529653D01*
X338468Y528183D01*
X341183Y525468D01*
X342653Y521920D01*
X342653Y518080D01*
X341183Y514532D01*
X338468Y511817D01*
X334920Y510347D01*
X331080Y510347D01*
X329893Y510839D01*
X329779Y510866D01*
X329666Y510894D01*
X329659Y510894D01*
X329653Y510895D01*
X329537Y510884D01*
X329420Y510875D01*
X329415Y510873D01*
X329408Y510872D01*
X329301Y510824D01*
X329194Y510779D01*
X329188Y510774D01*
X329184Y510772D01*
X329170Y510759D01*
X329063Y510674D01*
X324034Y505644D01*
X323981Y505571D01*
X323921Y505501D01*
X323909Y505471D01*
X323890Y505445D01*
X323863Y505358D01*
X323829Y505273D01*
X323825Y505232D01*
X323818Y505210D01*
X323819Y505177D01*
X323811Y505106D01*
X323811Y500717D01*
X323812Y500709D01*
X323811Y500701D01*
X323832Y500588D01*
X323850Y500474D01*
X323854Y500467D01*
X323856Y500459D01*
X323912Y500359D01*
X323966Y500257D01*
X323971Y500252D01*
X323975Y500245D01*
X324060Y500167D01*
X324144Y500088D01*
X324151Y500084D01*
X324157Y500079D01*
X324262Y500033D01*
X324367Y499984D01*
X324375Y499983D01*
X324382Y499980D01*
X324497Y499970D01*
X324611Y499957D01*
X324619Y499959D01*
X324627Y499958D01*
X324740Y499985D01*
X324852Y500009D01*
X324859Y500013D01*
X324866Y500015D01*
X324964Y500076D01*
X325063Y500135D01*
X325068Y500141D01*
X325075Y500146D01*
X325188Y500270D01*
X325637Y500888D01*
X326712Y501963D01*
X327941Y502856D01*
X329295Y503546D01*
X330740Y504015D01*
X331477Y504132D01*
X331477Y495362D01*
X331480Y495342D01*
X331478Y495323D01*
X331500Y495221D01*
X331517Y495119D01*
X331526Y495102D01*
X331530Y495082D01*
X331583Y494993D01*
X331632Y494902D01*
X331646Y494888D01*
X331656Y494871D01*
X331735Y494804D01*
X331810Y494733D01*
X331828Y494724D01*
X331843Y494711D01*
X331939Y494673D01*
X332033Y494629D01*
X332053Y494627D01*
X332071Y494619D01*
X332238Y494601D01*
X333001Y494601D01*
X333001Y494599D01*
X332238Y494599D01*
X332218Y494596D01*
X332199Y494598D01*
X332097Y494576D01*
X331995Y494559D01*
X331978Y494550D01*
X331958Y494546D01*
X331869Y494493D01*
X331778Y494444D01*
X331764Y494430D01*
X331747Y494420D01*
X331680Y494341D01*
X331609Y494266D01*
X331600Y494248D01*
X331587Y494233D01*
X331548Y494136D01*
X331505Y494043D01*
X331503Y494023D01*
X331495Y494005D01*
X331477Y493838D01*
X331477Y485068D01*
X330740Y485185D01*
X329295Y485654D01*
X327941Y486344D01*
X326712Y487237D01*
X325637Y488312D01*
X325188Y488930D01*
X325182Y488936D01*
X325178Y488943D01*
X325166Y488954D01*
X325160Y488965D01*
X325109Y489009D01*
X325095Y489022D01*
X325013Y489103D01*
X325006Y489107D01*
X325000Y489112D01*
X324974Y489125D01*
X324973Y489125D01*
X324967Y489128D01*
X324896Y489161D01*
X324792Y489212D01*
X324784Y489213D01*
X324777Y489216D01*
X324663Y489229D01*
X324548Y489244D01*
X324540Y489242D01*
X324533Y489243D01*
X324420Y489219D01*
X324307Y489196D01*
X324300Y489193D01*
X324292Y489191D01*
X324193Y489132D01*
X324093Y489075D01*
X324088Y489069D01*
X324081Y489065D01*
X324006Y488977D01*
X323929Y488891D01*
X323926Y488884D01*
X323921Y488878D01*
X323878Y488771D01*
X323841Y488684D01*
X323839Y488679D01*
X323833Y488665D01*
X323832Y488657D01*
X323829Y488650D01*
X323811Y488483D01*
X323811Y471894D01*
X323825Y471804D01*
X323833Y471713D01*
X323845Y471683D01*
X323850Y471651D01*
X323893Y471570D01*
X323929Y471486D01*
X323955Y471454D01*
X323966Y471434D01*
X323989Y471411D01*
X324034Y471356D01*
X356344Y439046D01*
X356417Y438993D01*
X356487Y438933D01*
X356517Y438921D01*
X356543Y438902D01*
X356630Y438875D01*
X356715Y438841D01*
X356756Y438837D01*
X356778Y438830D01*
X356811Y438831D01*
X356882Y438823D01*
X358758Y438823D01*
X361082Y437860D01*
X362860Y436082D01*
X363823Y433758D01*
X363823Y431242D01*
X362860Y428918D01*
X361082Y427140D01*
X358758Y426177D01*
X356242Y426177D01*
G37*
%LPD*%
%LPC*%
G36*
X510380Y175647D02*
X510380Y175647D01*
X506832Y177117D01*
X504117Y179832D01*
X502647Y183380D01*
X502647Y187220D01*
X503139Y188407D01*
X503166Y188521D01*
X503194Y188634D01*
X503194Y188641D01*
X503195Y188647D01*
X503184Y188763D01*
X503175Y188880D01*
X503173Y188885D01*
X503172Y188892D01*
X503124Y188999D01*
X503079Y189106D01*
X503074Y189112D01*
X503072Y189116D01*
X503059Y189130D01*
X502974Y189237D01*
X423745Y268466D01*
X423671Y268519D01*
X423601Y268579D01*
X423571Y268591D01*
X423545Y268610D01*
X423458Y268637D01*
X423373Y268671D01*
X423332Y268675D01*
X423310Y268682D01*
X423278Y268681D01*
X423206Y268689D01*
X415446Y268689D01*
X415356Y268675D01*
X415265Y268667D01*
X415236Y268655D01*
X415204Y268650D01*
X415123Y268607D01*
X415039Y268571D01*
X415007Y268545D01*
X414986Y268534D01*
X414964Y268511D01*
X414908Y268466D01*
X413582Y267140D01*
X411258Y266177D01*
X408742Y266177D01*
X406418Y267140D01*
X404640Y268918D01*
X403677Y271242D01*
X403677Y273758D01*
X404640Y276082D01*
X406418Y277860D01*
X408742Y278823D01*
X411258Y278823D01*
X413582Y277860D01*
X414908Y276534D01*
X414982Y276481D01*
X415051Y276421D01*
X415082Y276409D01*
X415108Y276390D01*
X415195Y276363D01*
X415280Y276329D01*
X415321Y276325D01*
X415343Y276318D01*
X415375Y276319D01*
X415446Y276311D01*
X426678Y276311D01*
X429134Y273856D01*
X429134Y273855D01*
X508363Y194626D01*
X508457Y194558D01*
X508552Y194488D01*
X508558Y194486D01*
X508563Y194482D01*
X508674Y194448D01*
X508786Y194412D01*
X508792Y194412D01*
X508798Y194410D01*
X508915Y194413D01*
X509032Y194414D01*
X509039Y194416D01*
X509044Y194416D01*
X509061Y194423D01*
X509193Y194461D01*
X510380Y194953D01*
X514220Y194953D01*
X517768Y193483D01*
X520483Y190768D01*
X521953Y187220D01*
X521953Y183380D01*
X520483Y179832D01*
X517768Y177117D01*
X514220Y175647D01*
X510380Y175647D01*
G37*
%LPD*%
%LPC*%
G36*
X216327Y304477D02*
X216327Y304477D01*
X212313Y306140D01*
X209240Y309213D01*
X207577Y313227D01*
X207577Y317573D01*
X209240Y321587D01*
X212313Y324660D01*
X216327Y326323D01*
X220673Y326323D01*
X224687Y324660D01*
X226103Y323244D01*
X226177Y323191D01*
X226247Y323131D01*
X226277Y323119D01*
X226303Y323100D01*
X226390Y323073D01*
X226475Y323039D01*
X226516Y323035D01*
X226538Y323028D01*
X226570Y323029D01*
X226642Y323021D01*
X268654Y323021D01*
X268744Y323035D01*
X268835Y323043D01*
X268865Y323055D01*
X268897Y323060D01*
X268978Y323103D01*
X269062Y323139D01*
X269094Y323165D01*
X269115Y323176D01*
X269137Y323199D01*
X269193Y323244D01*
X269532Y323583D01*
X273080Y325053D01*
X276920Y325053D01*
X280468Y323583D01*
X283183Y320868D01*
X284653Y317320D01*
X284653Y313480D01*
X283183Y309932D01*
X280468Y307217D01*
X276920Y305747D01*
X273080Y305747D01*
X269532Y307217D01*
X269193Y307556D01*
X269119Y307610D01*
X269049Y307669D01*
X269019Y307681D01*
X268993Y307700D01*
X268906Y307727D01*
X268821Y307761D01*
X268780Y307765D01*
X268758Y307772D01*
X268726Y307771D01*
X268654Y307779D01*
X226642Y307779D01*
X226552Y307765D01*
X226461Y307757D01*
X226431Y307745D01*
X226399Y307740D01*
X226318Y307697D01*
X226234Y307661D01*
X226202Y307635D01*
X226182Y307624D01*
X226159Y307601D01*
X226103Y307556D01*
X224687Y306140D01*
X220673Y304477D01*
X216327Y304477D01*
G37*
%LPD*%
%LPC*%
G36*
X145816Y422429D02*
X145816Y422429D01*
X142335Y423871D01*
X139671Y426535D01*
X138229Y430016D01*
X138229Y433784D01*
X139671Y437265D01*
X142335Y439929D01*
X143419Y440378D01*
X143519Y440440D01*
X143619Y440499D01*
X143623Y440504D01*
X143628Y440508D01*
X143703Y440598D01*
X143779Y440686D01*
X143781Y440692D01*
X143785Y440697D01*
X143827Y440805D01*
X143871Y440915D01*
X143872Y440922D01*
X143873Y440927D01*
X143874Y440945D01*
X143889Y441081D01*
X143889Y484278D01*
X146344Y486734D01*
X163913Y504302D01*
X163981Y504397D01*
X164051Y504491D01*
X164053Y504497D01*
X164057Y504502D01*
X164091Y504613D01*
X164127Y504725D01*
X164127Y504731D01*
X164129Y504737D01*
X164126Y504854D01*
X164125Y504971D01*
X164123Y504978D01*
X164123Y504983D01*
X164116Y505001D01*
X164078Y505132D01*
X163629Y506216D01*
X163629Y509984D01*
X165071Y513465D01*
X167735Y516129D01*
X171216Y517571D01*
X174984Y517571D01*
X178465Y516129D01*
X181129Y513465D01*
X182571Y509984D01*
X182571Y506216D01*
X181129Y502735D01*
X178465Y500071D01*
X174984Y498629D01*
X171216Y498629D01*
X170132Y499078D01*
X170068Y499093D01*
X170018Y499114D01*
X169958Y499120D01*
X169905Y499134D01*
X169899Y499133D01*
X169893Y499134D01*
X169858Y499131D01*
X169851Y499132D01*
X169836Y499132D01*
X169796Y499125D01*
X169776Y499123D01*
X169660Y499114D01*
X169654Y499112D01*
X169648Y499111D01*
X169611Y499095D01*
X169594Y499092D01*
X169537Y499062D01*
X169433Y499018D01*
X169428Y499013D01*
X169423Y499011D01*
X169409Y498999D01*
X169394Y498986D01*
X169376Y498977D01*
X169358Y498957D01*
X169302Y498913D01*
X151734Y481344D01*
X151681Y481271D01*
X151621Y481201D01*
X151609Y481171D01*
X151590Y481145D01*
X151563Y481058D01*
X151529Y480973D01*
X151525Y480932D01*
X151518Y480910D01*
X151519Y480877D01*
X151511Y480806D01*
X151511Y441081D01*
X151530Y440966D01*
X151547Y440850D01*
X151549Y440845D01*
X151550Y440838D01*
X151605Y440736D01*
X151658Y440631D01*
X151663Y440627D01*
X151666Y440621D01*
X151750Y440541D01*
X151834Y440459D01*
X151840Y440455D01*
X151844Y440452D01*
X151861Y440444D01*
X151981Y440378D01*
X153065Y439929D01*
X155729Y437265D01*
X157171Y433784D01*
X157171Y430016D01*
X155729Y426535D01*
X153065Y423871D01*
X149584Y422429D01*
X145816Y422429D01*
G37*
%LPD*%
%LPC*%
G36*
X318742Y528677D02*
X318742Y528677D01*
X316418Y529640D01*
X314640Y531418D01*
X313677Y533742D01*
X313677Y536258D01*
X314640Y538582D01*
X315966Y539908D01*
X316019Y539982D01*
X316079Y540051D01*
X316091Y540082D01*
X316110Y540108D01*
X316137Y540195D01*
X316171Y540280D01*
X316175Y540321D01*
X316182Y540343D01*
X316181Y540375D01*
X316189Y540446D01*
X316189Y570806D01*
X316175Y570896D01*
X316167Y570987D01*
X316155Y571017D01*
X316150Y571049D01*
X316107Y571130D01*
X316071Y571214D01*
X316045Y571246D01*
X316034Y571266D01*
X316011Y571289D01*
X315966Y571344D01*
X291637Y595674D01*
X291542Y595742D01*
X291448Y595812D01*
X291442Y595814D01*
X291437Y595818D01*
X291326Y595852D01*
X291214Y595888D01*
X291208Y595888D01*
X291202Y595890D01*
X291085Y595887D01*
X290968Y595886D01*
X290961Y595884D01*
X290956Y595884D01*
X290939Y595877D01*
X290807Y595839D01*
X289620Y595347D01*
X285780Y595347D01*
X282232Y596817D01*
X279517Y599532D01*
X278047Y603080D01*
X278047Y606920D01*
X279517Y610468D01*
X282232Y613183D01*
X285780Y614653D01*
X289620Y614653D01*
X293168Y613183D01*
X295883Y610468D01*
X297353Y606920D01*
X297353Y603080D01*
X296861Y601893D01*
X296834Y601779D01*
X296806Y601666D01*
X296806Y601659D01*
X296805Y601653D01*
X296816Y601537D01*
X296825Y601420D01*
X296827Y601415D01*
X296828Y601408D01*
X296876Y601301D01*
X296921Y601194D01*
X296926Y601188D01*
X296928Y601184D01*
X296941Y601170D01*
X297026Y601063D01*
X323811Y574278D01*
X323811Y540446D01*
X323825Y540356D01*
X323833Y540265D01*
X323845Y540236D01*
X323850Y540204D01*
X323893Y540123D01*
X323929Y540039D01*
X323955Y540007D01*
X323966Y539986D01*
X323989Y539964D01*
X324034Y539908D01*
X325360Y538582D01*
X326323Y536258D01*
X326323Y533742D01*
X325360Y531418D01*
X323582Y529640D01*
X321258Y528677D01*
X318742Y528677D01*
G37*
%LPD*%
%LPC*%
G36*
X138099Y370949D02*
X138099Y370949D01*
X138099Y371712D01*
X138096Y371732D01*
X138098Y371751D01*
X138076Y371853D01*
X138059Y371955D01*
X138050Y371972D01*
X138046Y371992D01*
X137993Y372081D01*
X137944Y372172D01*
X137930Y372186D01*
X137920Y372203D01*
X137841Y372270D01*
X137766Y372341D01*
X137748Y372350D01*
X137733Y372363D01*
X137637Y372402D01*
X137543Y372445D01*
X137523Y372447D01*
X137505Y372455D01*
X137338Y372473D01*
X128447Y372473D01*
X128447Y378396D01*
X128620Y379043D01*
X128955Y379622D01*
X129428Y380095D01*
X130007Y380430D01*
X130654Y380603D01*
X132008Y380603D01*
X132079Y380614D01*
X132151Y380616D01*
X132200Y380634D01*
X132251Y380642D01*
X132315Y380676D01*
X132382Y380701D01*
X132423Y380733D01*
X132469Y380758D01*
X132518Y380810D01*
X132574Y380854D01*
X132602Y380898D01*
X132638Y380936D01*
X132668Y381001D01*
X132707Y381061D01*
X132720Y381112D01*
X132742Y381159D01*
X132749Y381230D01*
X132767Y381300D01*
X132763Y381352D01*
X132769Y381403D01*
X132753Y381474D01*
X132748Y381545D01*
X132728Y381593D01*
X132716Y381644D01*
X132680Y381705D01*
X132652Y381771D01*
X132607Y381827D01*
X132590Y381855D01*
X132572Y381870D01*
X132547Y381902D01*
X129917Y384532D01*
X128447Y388080D01*
X128447Y391920D01*
X129917Y395468D01*
X132632Y398183D01*
X134174Y398822D01*
X134235Y398860D01*
X134300Y398889D01*
X134338Y398924D01*
X134383Y398951D01*
X134428Y399007D01*
X134481Y399055D01*
X134506Y399101D01*
X134540Y399141D01*
X134565Y399208D01*
X134600Y399271D01*
X134609Y399322D01*
X134628Y399370D01*
X134631Y399442D01*
X134644Y399513D01*
X134636Y399564D01*
X134638Y399616D01*
X134618Y399685D01*
X134608Y399756D01*
X134584Y399802D01*
X134570Y399852D01*
X134529Y399911D01*
X134496Y399975D01*
X134459Y400012D01*
X134429Y400054D01*
X134372Y400097D01*
X134321Y400147D01*
X134258Y400182D01*
X134232Y400201D01*
X134210Y400208D01*
X134174Y400228D01*
X132632Y400867D01*
X129917Y403582D01*
X128447Y407130D01*
X128447Y410970D01*
X129917Y414518D01*
X132632Y417233D01*
X136180Y418703D01*
X140020Y418703D01*
X143568Y417233D01*
X146283Y414518D01*
X147753Y410970D01*
X147753Y407130D01*
X146283Y403582D01*
X143568Y400867D01*
X142026Y400228D01*
X141965Y400190D01*
X141900Y400161D01*
X141862Y400126D01*
X141817Y400099D01*
X141772Y400043D01*
X141719Y399995D01*
X141694Y399949D01*
X141660Y399909D01*
X141635Y399842D01*
X141600Y399779D01*
X141591Y399728D01*
X141572Y399680D01*
X141569Y399608D01*
X141556Y399537D01*
X141564Y399486D01*
X141562Y399434D01*
X141582Y399365D01*
X141592Y399294D01*
X141616Y399248D01*
X141630Y399198D01*
X141671Y399139D01*
X141704Y399075D01*
X141741Y399038D01*
X141771Y398996D01*
X141828Y398953D01*
X141879Y398903D01*
X141942Y398868D01*
X141968Y398849D01*
X141990Y398842D01*
X142026Y398822D01*
X143568Y398183D01*
X146283Y395468D01*
X147753Y391920D01*
X147753Y388080D01*
X146283Y384532D01*
X143653Y381902D01*
X143611Y381844D01*
X143562Y381792D01*
X143540Y381745D01*
X143510Y381703D01*
X143489Y381634D01*
X143458Y381569D01*
X143453Y381517D01*
X143437Y381467D01*
X143439Y381396D01*
X143431Y381325D01*
X143442Y381274D01*
X143444Y381222D01*
X143468Y381154D01*
X143484Y381084D01*
X143510Y381039D01*
X143528Y380991D01*
X143573Y380935D01*
X143610Y380873D01*
X143649Y380839D01*
X143682Y380799D01*
X143742Y380760D01*
X143797Y380713D01*
X143845Y380694D01*
X143889Y380666D01*
X143958Y380648D01*
X144025Y380621D01*
X144096Y380613D01*
X144127Y380605D01*
X144151Y380607D01*
X144192Y380603D01*
X145546Y380603D01*
X146193Y380430D01*
X146772Y380095D01*
X147245Y379622D01*
X147580Y379043D01*
X147753Y378396D01*
X147753Y372473D01*
X138862Y372473D01*
X138842Y372470D01*
X138823Y372472D01*
X138721Y372450D01*
X138619Y372433D01*
X138602Y372424D01*
X138582Y372420D01*
X138493Y372367D01*
X138402Y372318D01*
X138388Y372304D01*
X138371Y372294D01*
X138304Y372215D01*
X138233Y372140D01*
X138224Y372122D01*
X138211Y372107D01*
X138173Y372011D01*
X138129Y371917D01*
X138127Y371897D01*
X138119Y371879D01*
X138101Y371712D01*
X138101Y370949D01*
X138099Y370949D01*
G37*
%LPD*%
%LPC*%
G36*
X209066Y253677D02*
X209066Y253677D01*
X207577Y255166D01*
X207577Y274034D01*
X209066Y275523D01*
X227934Y275523D01*
X229423Y274034D01*
X229423Y255166D01*
X227934Y253677D01*
X209066Y253677D01*
G37*
%LPD*%
%LPC*%
G36*
X353254Y124209D02*
X353254Y124209D01*
X349288Y125852D01*
X346252Y128888D01*
X344609Y132854D01*
X344609Y137146D01*
X346252Y141112D01*
X349288Y144148D01*
X353254Y145791D01*
X357546Y145791D01*
X361512Y144148D01*
X364548Y141112D01*
X366191Y137146D01*
X366191Y132854D01*
X364548Y128888D01*
X361512Y125852D01*
X357546Y124209D01*
X353254Y124209D01*
G37*
%LPD*%
%LPC*%
G36*
X302454Y44209D02*
X302454Y44209D01*
X298488Y45852D01*
X295452Y48888D01*
X293809Y52854D01*
X293809Y57146D01*
X295452Y61112D01*
X298488Y64148D01*
X302454Y65791D01*
X306746Y65791D01*
X310712Y64148D01*
X313748Y61112D01*
X315391Y57146D01*
X315391Y52854D01*
X313748Y48888D01*
X310712Y45852D01*
X306746Y44209D01*
X302454Y44209D01*
G37*
%LPD*%
%LPC*%
G36*
X353254Y44209D02*
X353254Y44209D01*
X349288Y45852D01*
X346252Y48888D01*
X344609Y52854D01*
X344609Y57146D01*
X346252Y61112D01*
X349288Y64148D01*
X353254Y65791D01*
X357546Y65791D01*
X361512Y64148D01*
X364548Y61112D01*
X366191Y57146D01*
X366191Y52854D01*
X364548Y48888D01*
X361512Y45852D01*
X357546Y44209D01*
X353254Y44209D01*
G37*
%LPD*%
%LPC*%
G36*
X366036Y406447D02*
X366036Y406447D01*
X364547Y407936D01*
X364547Y424264D01*
X366036Y425753D01*
X382364Y425753D01*
X383853Y424264D01*
X383853Y407936D01*
X382364Y406447D01*
X366036Y406447D01*
G37*
%LPD*%
%LPC*%
G36*
X257503Y144959D02*
X257503Y144959D01*
X253812Y146488D01*
X250988Y149312D01*
X249459Y153003D01*
X249459Y156997D01*
X250988Y160688D01*
X253812Y163512D01*
X257503Y165041D01*
X261497Y165041D01*
X265188Y163512D01*
X268012Y160688D01*
X269541Y156997D01*
X269541Y153003D01*
X268012Y149312D01*
X265188Y146488D01*
X261497Y144959D01*
X257503Y144959D01*
G37*
%LPD*%
%LPC*%
G36*
X18503Y144959D02*
X18503Y144959D01*
X14812Y146488D01*
X11988Y149312D01*
X10459Y153003D01*
X10459Y156997D01*
X11988Y160688D01*
X14812Y163512D01*
X18503Y165041D01*
X22497Y165041D01*
X26188Y163512D01*
X29012Y160688D01*
X30541Y156997D01*
X30541Y153003D01*
X29012Y149312D01*
X26188Y146488D01*
X22497Y144959D01*
X18503Y144959D01*
G37*
%LPD*%
%LPC*%
G36*
X105780Y540347D02*
X105780Y540347D01*
X102232Y541817D01*
X99517Y544532D01*
X98047Y548080D01*
X98047Y551920D01*
X99517Y555468D01*
X102232Y558183D01*
X105780Y559653D01*
X109620Y559653D01*
X113168Y558183D01*
X115883Y555468D01*
X117353Y551920D01*
X117353Y548080D01*
X115883Y544532D01*
X113168Y541817D01*
X109620Y540347D01*
X105780Y540347D01*
G37*
%LPD*%
%LPC*%
G36*
X510380Y99447D02*
X510380Y99447D01*
X506832Y100917D01*
X504117Y103632D01*
X502647Y107180D01*
X502647Y111020D01*
X504117Y114568D01*
X506832Y117283D01*
X510380Y118753D01*
X514220Y118753D01*
X517768Y117283D01*
X520483Y114568D01*
X521953Y111020D01*
X521953Y107180D01*
X520483Y103632D01*
X517768Y100917D01*
X514220Y99447D01*
X510380Y99447D01*
G37*
%LPD*%
%LPC*%
G36*
X535780Y531247D02*
X535780Y531247D01*
X532232Y532717D01*
X529517Y535432D01*
X528047Y538980D01*
X528047Y542820D01*
X529517Y546368D01*
X532232Y549083D01*
X535780Y550553D01*
X539620Y550553D01*
X543168Y549083D01*
X545883Y546368D01*
X547353Y542820D01*
X547353Y538980D01*
X545883Y535432D01*
X543168Y532717D01*
X539620Y531247D01*
X535780Y531247D01*
G37*
%LPD*%
%LPC*%
G36*
X535780Y99447D02*
X535780Y99447D01*
X532232Y100917D01*
X529517Y103632D01*
X528047Y107180D01*
X528047Y111020D01*
X529517Y114568D01*
X532232Y117283D01*
X535780Y118753D01*
X539620Y118753D01*
X543168Y117283D01*
X545883Y114568D01*
X547353Y111020D01*
X547353Y107180D01*
X545883Y103632D01*
X543168Y100917D01*
X539620Y99447D01*
X535780Y99447D01*
G37*
%LPD*%
%LPC*%
G36*
X458080Y510347D02*
X458080Y510347D01*
X454532Y511817D01*
X451817Y514532D01*
X450347Y518080D01*
X450347Y521920D01*
X451817Y525468D01*
X454532Y528183D01*
X458080Y529653D01*
X461920Y529653D01*
X465468Y528183D01*
X468183Y525468D01*
X469653Y521920D01*
X469653Y518080D01*
X468183Y514532D01*
X465468Y511817D01*
X461920Y510347D01*
X458080Y510347D01*
G37*
%LPD*%
%LPC*%
G36*
X432680Y510347D02*
X432680Y510347D01*
X429132Y511817D01*
X426417Y514532D01*
X424947Y518080D01*
X424947Y521920D01*
X426417Y525468D01*
X429132Y528183D01*
X432680Y529653D01*
X436520Y529653D01*
X440068Y528183D01*
X442783Y525468D01*
X444253Y521920D01*
X444253Y518080D01*
X442783Y514532D01*
X440068Y511817D01*
X436520Y510347D01*
X432680Y510347D01*
G37*
%LPD*%
%LPC*%
G36*
X510380Y124847D02*
X510380Y124847D01*
X506832Y126317D01*
X504117Y129032D01*
X502647Y132580D01*
X502647Y136420D01*
X504117Y139968D01*
X506832Y142683D01*
X510380Y144153D01*
X514220Y144153D01*
X517768Y142683D01*
X520483Y139968D01*
X521953Y136420D01*
X521953Y132580D01*
X520483Y129032D01*
X517768Y126317D01*
X514220Y124847D01*
X510380Y124847D01*
G37*
%LPD*%
%LPC*%
G36*
X510380Y505847D02*
X510380Y505847D01*
X506832Y507317D01*
X504117Y510032D01*
X502647Y513580D01*
X502647Y517420D01*
X504117Y520968D01*
X506832Y523683D01*
X510380Y525153D01*
X514220Y525153D01*
X517768Y523683D01*
X520483Y520968D01*
X521953Y517420D01*
X521953Y513580D01*
X520483Y510032D01*
X517768Y507317D01*
X514220Y505847D01*
X510380Y505847D01*
G37*
%LPD*%
%LPC*%
G36*
X535780Y124847D02*
X535780Y124847D01*
X532232Y126317D01*
X529517Y129032D01*
X528047Y132580D01*
X528047Y136420D01*
X529517Y139968D01*
X532232Y142683D01*
X535780Y144153D01*
X539620Y144153D01*
X543168Y142683D01*
X545883Y139968D01*
X547353Y136420D01*
X547353Y132580D01*
X545883Y129032D01*
X543168Y126317D01*
X539620Y124847D01*
X535780Y124847D01*
G37*
%LPD*%
%LPC*%
G36*
X510380Y353447D02*
X510380Y353447D01*
X506832Y354917D01*
X504117Y357632D01*
X502647Y361180D01*
X502647Y365020D01*
X504117Y368568D01*
X506832Y371283D01*
X510380Y372753D01*
X514220Y372753D01*
X517768Y371283D01*
X520483Y368568D01*
X521953Y365020D01*
X521953Y361180D01*
X520483Y357632D01*
X517768Y354917D01*
X514220Y353447D01*
X510380Y353447D01*
G37*
%LPD*%
%LPC*%
G36*
X510380Y150247D02*
X510380Y150247D01*
X506832Y151717D01*
X504117Y154432D01*
X502647Y157980D01*
X502647Y161820D01*
X504117Y165368D01*
X506832Y168083D01*
X510380Y169553D01*
X514220Y169553D01*
X517768Y168083D01*
X520483Y165368D01*
X521953Y161820D01*
X521953Y157980D01*
X520483Y154432D01*
X517768Y151717D01*
X514220Y150247D01*
X510380Y150247D01*
G37*
%LPD*%
%LPC*%
G36*
X535780Y175647D02*
X535780Y175647D01*
X532232Y177117D01*
X529517Y179832D01*
X528047Y183380D01*
X528047Y187220D01*
X529517Y190768D01*
X532232Y193483D01*
X535780Y194953D01*
X539620Y194953D01*
X543168Y193483D01*
X545883Y190768D01*
X547353Y187220D01*
X547353Y183380D01*
X545883Y179832D01*
X543168Y177117D01*
X539620Y175647D01*
X535780Y175647D01*
G37*
%LPD*%
%LPC*%
G36*
X535780Y378847D02*
X535780Y378847D01*
X532232Y380317D01*
X529517Y383032D01*
X528047Y386580D01*
X528047Y390420D01*
X529517Y393968D01*
X532232Y396683D01*
X535780Y398153D01*
X539620Y398153D01*
X543168Y396683D01*
X545883Y393968D01*
X547353Y390420D01*
X547353Y386580D01*
X545883Y383032D01*
X543168Y380317D01*
X539620Y378847D01*
X535780Y378847D01*
G37*
%LPD*%
%LPC*%
G36*
X510380Y201047D02*
X510380Y201047D01*
X506832Y202517D01*
X504117Y205232D01*
X502647Y208780D01*
X502647Y212620D01*
X504117Y216168D01*
X506832Y218883D01*
X510380Y220353D01*
X514220Y220353D01*
X517768Y218883D01*
X520483Y216168D01*
X521953Y212620D01*
X521953Y208780D01*
X520483Y205232D01*
X517768Y202517D01*
X514220Y201047D01*
X510380Y201047D01*
G37*
%LPD*%
%LPC*%
G36*
X535780Y429647D02*
X535780Y429647D01*
X532232Y431117D01*
X529517Y433832D01*
X528047Y437380D01*
X528047Y441220D01*
X529517Y444768D01*
X532232Y447483D01*
X535780Y448953D01*
X539620Y448953D01*
X543168Y447483D01*
X545883Y444768D01*
X547353Y441220D01*
X547353Y437380D01*
X545883Y433832D01*
X543168Y431117D01*
X539620Y429647D01*
X535780Y429647D01*
G37*
%LPD*%
%LPC*%
G36*
X273080Y425747D02*
X273080Y425747D01*
X269532Y427217D01*
X266817Y429932D01*
X265347Y433480D01*
X265347Y437320D01*
X266817Y440868D01*
X269532Y443583D01*
X273080Y445053D01*
X276920Y445053D01*
X280468Y443583D01*
X283183Y440868D01*
X284653Y437320D01*
X284653Y433480D01*
X283183Y429932D01*
X280468Y427217D01*
X276920Y425747D01*
X273080Y425747D01*
G37*
%LPD*%
%LPC*%
G36*
X535780Y226447D02*
X535780Y226447D01*
X532232Y227917D01*
X529517Y230632D01*
X528047Y234180D01*
X528047Y238020D01*
X529517Y241568D01*
X532232Y244283D01*
X535780Y245753D01*
X539620Y245753D01*
X543168Y244283D01*
X545883Y241568D01*
X547353Y238020D01*
X547353Y234180D01*
X545883Y230632D01*
X543168Y227917D01*
X539620Y226447D01*
X535780Y226447D01*
G37*
%LPD*%
%LPC*%
G36*
X535780Y251847D02*
X535780Y251847D01*
X532232Y253317D01*
X529517Y256032D01*
X528047Y259580D01*
X528047Y263420D01*
X529517Y266968D01*
X532232Y269683D01*
X535780Y271153D01*
X539620Y271153D01*
X543168Y269683D01*
X545883Y266968D01*
X547353Y263420D01*
X547353Y259580D01*
X545883Y256032D01*
X543168Y253317D01*
X539620Y251847D01*
X535780Y251847D01*
G37*
%LPD*%
%LPC*%
G36*
X510380Y277247D02*
X510380Y277247D01*
X506832Y278717D01*
X504117Y281432D01*
X502647Y284980D01*
X502647Y288820D01*
X504117Y292368D01*
X506832Y295083D01*
X510380Y296553D01*
X514220Y296553D01*
X517768Y295083D01*
X520483Y292368D01*
X521953Y288820D01*
X521953Y284980D01*
X520483Y281432D01*
X517768Y278717D01*
X514220Y277247D01*
X510380Y277247D01*
G37*
%LPD*%
%LPC*%
G36*
X423080Y406447D02*
X423080Y406447D01*
X419532Y407917D01*
X416817Y410632D01*
X415347Y414180D01*
X415347Y418020D01*
X416817Y421568D01*
X419532Y424283D01*
X423080Y425753D01*
X426920Y425753D01*
X430468Y424283D01*
X433183Y421568D01*
X434653Y418020D01*
X434653Y414180D01*
X433183Y410632D01*
X430468Y407917D01*
X426920Y406447D01*
X423080Y406447D01*
G37*
%LPD*%
%LPC*%
G36*
X510380Y378847D02*
X510380Y378847D01*
X506832Y380317D01*
X504117Y383032D01*
X502647Y386580D01*
X502647Y390420D01*
X504117Y393968D01*
X506832Y396683D01*
X510380Y398153D01*
X514220Y398153D01*
X517768Y396683D01*
X520483Y393968D01*
X521953Y390420D01*
X521953Y386580D01*
X520483Y383032D01*
X517768Y380317D01*
X514220Y378847D01*
X510380Y378847D01*
G37*
%LPD*%
%LPC*%
G36*
X510380Y404247D02*
X510380Y404247D01*
X506832Y405717D01*
X504117Y408432D01*
X502647Y411980D01*
X502647Y415820D01*
X504117Y419368D01*
X506832Y422083D01*
X510380Y423553D01*
X514220Y423553D01*
X517768Y422083D01*
X520483Y419368D01*
X521953Y415820D01*
X521953Y411980D01*
X520483Y408432D01*
X517768Y405717D01*
X514220Y404247D01*
X510380Y404247D01*
G37*
%LPD*%
%LPC*%
G36*
X535780Y353447D02*
X535780Y353447D01*
X532232Y354917D01*
X529517Y357632D01*
X528047Y361180D01*
X528047Y365020D01*
X529517Y368568D01*
X532232Y371283D01*
X535780Y372753D01*
X539620Y372753D01*
X543168Y371283D01*
X545883Y368568D01*
X547353Y365020D01*
X547353Y361180D01*
X545883Y357632D01*
X543168Y354917D01*
X539620Y353447D01*
X535780Y353447D01*
G37*
%LPD*%
%LPC*%
G36*
X273080Y374947D02*
X273080Y374947D01*
X269532Y376417D01*
X266817Y379132D01*
X265347Y382680D01*
X265347Y386520D01*
X266817Y390068D01*
X269532Y392783D01*
X273080Y394253D01*
X276920Y394253D01*
X280468Y392783D01*
X283183Y390068D01*
X284653Y386520D01*
X284653Y382680D01*
X283183Y379132D01*
X280468Y376417D01*
X276920Y374947D01*
X273080Y374947D01*
G37*
%LPD*%
%LPC*%
G36*
X273080Y400347D02*
X273080Y400347D01*
X269532Y401817D01*
X266817Y404532D01*
X265347Y408080D01*
X265347Y411920D01*
X266817Y415468D01*
X269532Y418183D01*
X273080Y419653D01*
X276920Y419653D01*
X280468Y418183D01*
X283183Y415468D01*
X284653Y411920D01*
X284653Y408080D01*
X283183Y404532D01*
X280468Y401817D01*
X276920Y400347D01*
X273080Y400347D01*
G37*
%LPD*%
%LPC*%
G36*
X535780Y277247D02*
X535780Y277247D01*
X532232Y278717D01*
X529517Y281432D01*
X528047Y284980D01*
X528047Y288820D01*
X529517Y292368D01*
X532232Y295083D01*
X535780Y296553D01*
X539620Y296553D01*
X543168Y295083D01*
X545883Y292368D01*
X547353Y288820D01*
X547353Y284980D01*
X545883Y281432D01*
X543168Y278717D01*
X539620Y277247D01*
X535780Y277247D01*
G37*
%LPD*%
%LPC*%
G36*
X423080Y296447D02*
X423080Y296447D01*
X419532Y297917D01*
X416817Y300632D01*
X415347Y304180D01*
X415347Y308020D01*
X416817Y311568D01*
X419532Y314283D01*
X423080Y315753D01*
X426920Y315753D01*
X430468Y314283D01*
X433183Y311568D01*
X434653Y308020D01*
X434653Y304180D01*
X433183Y300632D01*
X430468Y297917D01*
X426920Y296447D01*
X423080Y296447D01*
G37*
%LPD*%
%LPC*%
G36*
X510380Y302647D02*
X510380Y302647D01*
X506832Y304117D01*
X504117Y306832D01*
X502647Y310380D01*
X502647Y314220D01*
X504117Y317768D01*
X506832Y320483D01*
X510380Y321953D01*
X514220Y321953D01*
X517768Y320483D01*
X520483Y317768D01*
X521953Y314220D01*
X521953Y310380D01*
X520483Y306832D01*
X517768Y304117D01*
X514220Y302647D01*
X510380Y302647D01*
G37*
%LPD*%
%LPC*%
G36*
X535780Y302647D02*
X535780Y302647D01*
X532232Y304117D01*
X529517Y306832D01*
X528047Y310380D01*
X528047Y314220D01*
X529517Y317768D01*
X532232Y320483D01*
X535780Y321953D01*
X539620Y321953D01*
X543168Y320483D01*
X545883Y317768D01*
X547353Y314220D01*
X547353Y310380D01*
X545883Y306832D01*
X543168Y304117D01*
X539620Y302647D01*
X535780Y302647D01*
G37*
%LPD*%
%LPC*%
G36*
X510380Y328047D02*
X510380Y328047D01*
X506832Y329517D01*
X504117Y332232D01*
X502647Y335780D01*
X502647Y339620D01*
X504117Y343168D01*
X506832Y345883D01*
X510380Y347353D01*
X514220Y347353D01*
X517768Y345883D01*
X520483Y343168D01*
X521953Y339620D01*
X521953Y335780D01*
X520483Y332232D01*
X517768Y329517D01*
X514220Y328047D01*
X510380Y328047D01*
G37*
%LPD*%
%LPC*%
G36*
X260380Y595347D02*
X260380Y595347D01*
X256832Y596817D01*
X254117Y599532D01*
X252647Y603080D01*
X252647Y606920D01*
X254117Y610468D01*
X256832Y613183D01*
X260380Y614653D01*
X264220Y614653D01*
X267768Y613183D01*
X270483Y610468D01*
X271953Y606920D01*
X271953Y603080D01*
X270483Y599532D01*
X267768Y596817D01*
X264220Y595347D01*
X260380Y595347D01*
G37*
%LPD*%
%LPC*%
G36*
X535780Y74047D02*
X535780Y74047D01*
X532232Y75517D01*
X529517Y78232D01*
X528047Y81780D01*
X528047Y85620D01*
X529517Y89168D01*
X532232Y91883D01*
X535780Y93353D01*
X539620Y93353D01*
X543168Y91883D01*
X545883Y89168D01*
X547353Y85620D01*
X547353Y81780D01*
X545883Y78232D01*
X543168Y75517D01*
X539620Y74047D01*
X535780Y74047D01*
G37*
%LPD*%
%LPC*%
G36*
X510380Y226447D02*
X510380Y226447D01*
X506832Y227917D01*
X504117Y230632D01*
X502647Y234180D01*
X502647Y238020D01*
X504117Y241568D01*
X506832Y244283D01*
X510380Y245753D01*
X514220Y245753D01*
X517768Y244283D01*
X520483Y241568D01*
X521953Y238020D01*
X521953Y234180D01*
X520483Y230632D01*
X517768Y227917D01*
X514220Y226447D01*
X510380Y226447D01*
G37*
%LPD*%
%LPC*%
G36*
X120416Y422429D02*
X120416Y422429D01*
X116935Y423871D01*
X114271Y426535D01*
X112829Y430016D01*
X112829Y433784D01*
X114271Y437265D01*
X116935Y439929D01*
X120416Y441371D01*
X124184Y441371D01*
X127665Y439929D01*
X130329Y437265D01*
X131771Y433784D01*
X131771Y430016D01*
X130329Y426535D01*
X127665Y423871D01*
X124184Y422429D01*
X120416Y422429D01*
G37*
%LPD*%
%LPC*%
G36*
X95016Y422429D02*
X95016Y422429D01*
X91535Y423871D01*
X88871Y426535D01*
X87429Y430016D01*
X87429Y433784D01*
X88871Y437265D01*
X91535Y439929D01*
X95016Y441371D01*
X98784Y441371D01*
X102265Y439929D01*
X104929Y437265D01*
X106371Y433784D01*
X106371Y430016D01*
X104929Y426535D01*
X102265Y423871D01*
X98784Y422429D01*
X95016Y422429D01*
G37*
%LPD*%
%LPC*%
G36*
X95016Y498629D02*
X95016Y498629D01*
X91535Y500071D01*
X88871Y502735D01*
X87429Y506216D01*
X87429Y509984D01*
X88871Y513465D01*
X91535Y516129D01*
X95016Y517571D01*
X98784Y517571D01*
X102265Y516129D01*
X104929Y513465D01*
X106371Y509984D01*
X106371Y506216D01*
X104929Y502735D01*
X102265Y500071D01*
X98784Y498629D01*
X95016Y498629D01*
G37*
%LPD*%
%LPC*%
G36*
X120416Y498629D02*
X120416Y498629D01*
X116935Y500071D01*
X114271Y502735D01*
X112829Y506216D01*
X112829Y509984D01*
X114271Y513465D01*
X116935Y516129D01*
X120416Y517571D01*
X124184Y517571D01*
X127665Y516129D01*
X130329Y513465D01*
X131771Y509984D01*
X131771Y506216D01*
X130329Y502735D01*
X127665Y500071D01*
X124184Y498629D01*
X120416Y498629D01*
G37*
%LPD*%
%LPC*%
G36*
X145816Y498629D02*
X145816Y498629D01*
X142335Y500071D01*
X139671Y502735D01*
X138229Y506216D01*
X138229Y509984D01*
X139671Y513465D01*
X142335Y516129D01*
X145816Y517571D01*
X149584Y517571D01*
X153065Y516129D01*
X155729Y513465D01*
X157171Y509984D01*
X157171Y506216D01*
X155729Y502735D01*
X153065Y500071D01*
X149584Y498629D01*
X145816Y498629D01*
G37*
%LPD*%
%LPC*%
G36*
X139623Y361297D02*
X139623Y361297D01*
X139623Y369427D01*
X147753Y369427D01*
X147753Y363504D01*
X147580Y362857D01*
X147245Y362278D01*
X146772Y361805D01*
X146193Y361470D01*
X145546Y361297D01*
X139623Y361297D01*
G37*
%LPD*%
%LPC*%
G36*
X130654Y361297D02*
X130654Y361297D01*
X130007Y361470D01*
X129428Y361805D01*
X128955Y362278D01*
X128620Y362857D01*
X128447Y363504D01*
X128447Y369427D01*
X136577Y369427D01*
X136577Y361297D01*
X130654Y361297D01*
G37*
%LPD*%
%LPC*%
G36*
X306123Y136523D02*
X306123Y136523D01*
X306123Y145684D01*
X307127Y145525D01*
X308742Y145000D01*
X310255Y144229D01*
X311630Y143231D01*
X312831Y142030D01*
X313829Y140655D01*
X314600Y139142D01*
X315125Y137527D01*
X315284Y136523D01*
X306123Y136523D01*
G37*
%LPD*%
%LPC*%
G36*
X306123Y133477D02*
X306123Y133477D01*
X315284Y133477D01*
X315125Y132473D01*
X314600Y130858D01*
X313829Y129345D01*
X312831Y127970D01*
X311630Y126769D01*
X310255Y125771D01*
X308742Y125000D01*
X307127Y124475D01*
X306123Y124316D01*
X306123Y133477D01*
G37*
%LPD*%
%LPC*%
G36*
X293916Y136523D02*
X293916Y136523D01*
X294075Y137527D01*
X294600Y139142D01*
X295371Y140655D01*
X296369Y142030D01*
X297570Y143231D01*
X298945Y144229D01*
X300458Y145000D01*
X302073Y145525D01*
X303077Y145684D01*
X303077Y136523D01*
X293916Y136523D01*
G37*
%LPD*%
%LPC*%
G36*
X302073Y124475D02*
X302073Y124475D01*
X300458Y125000D01*
X298945Y125771D01*
X297570Y126769D01*
X296369Y127970D01*
X295371Y129345D01*
X294600Y130858D01*
X294075Y132473D01*
X293916Y133477D01*
X303077Y133477D01*
X303077Y124316D01*
X302073Y124475D01*
G37*
%LPD*%
%LPC*%
G36*
X539223Y517023D02*
X539223Y517023D01*
X539223Y525032D01*
X539960Y524915D01*
X541405Y524446D01*
X542759Y523756D01*
X543988Y522863D01*
X545063Y521788D01*
X545956Y520559D01*
X546646Y519205D01*
X547115Y517760D01*
X547232Y517023D01*
X539223Y517023D01*
G37*
%LPD*%
%LPC*%
G36*
X334523Y496123D02*
X334523Y496123D01*
X334523Y504132D01*
X335260Y504015D01*
X336705Y503546D01*
X338059Y502856D01*
X339288Y501963D01*
X340363Y500888D01*
X341256Y499659D01*
X341946Y498305D01*
X342415Y496860D01*
X342532Y496123D01*
X334523Y496123D01*
G37*
%LPD*%
%LPC*%
G36*
X401123Y417623D02*
X401123Y417623D01*
X401123Y425632D01*
X401860Y425515D01*
X403305Y425046D01*
X404659Y424356D01*
X405888Y423463D01*
X406963Y422388D01*
X407856Y421159D01*
X408546Y419805D01*
X409015Y418360D01*
X409132Y417623D01*
X401123Y417623D01*
G37*
%LPD*%
%LPC*%
G36*
X216523Y411923D02*
X216523Y411923D01*
X216523Y419932D01*
X217260Y419815D01*
X218705Y419346D01*
X220059Y418656D01*
X221288Y417763D01*
X222363Y416688D01*
X223256Y415459D01*
X223946Y414105D01*
X224415Y412660D01*
X224532Y411923D01*
X216523Y411923D01*
G37*
%LPD*%
%LPC*%
G36*
X309123Y521523D02*
X309123Y521523D01*
X309123Y529532D01*
X309860Y529415D01*
X311305Y528946D01*
X312659Y528256D01*
X313888Y527363D01*
X314963Y526288D01*
X315856Y525059D01*
X316546Y523705D01*
X317015Y522260D01*
X317132Y521523D01*
X309123Y521523D01*
G37*
%LPD*%
%LPC*%
G36*
X539223Y339223D02*
X539223Y339223D01*
X539223Y347232D01*
X539960Y347115D01*
X541405Y346646D01*
X542759Y345956D01*
X543988Y345063D01*
X545063Y343988D01*
X545956Y342759D01*
X546646Y341405D01*
X547115Y339960D01*
X547232Y339223D01*
X539223Y339223D01*
G37*
%LPD*%
%LPC*%
G36*
X401123Y307623D02*
X401123Y307623D01*
X401123Y315632D01*
X401860Y315515D01*
X403305Y315046D01*
X404659Y314356D01*
X405888Y313463D01*
X406963Y312388D01*
X407856Y311159D01*
X408546Y309805D01*
X409015Y308360D01*
X409132Y307623D01*
X401123Y307623D01*
G37*
%LPD*%
%LPC*%
G36*
X513823Y263023D02*
X513823Y263023D01*
X513823Y271032D01*
X514560Y270915D01*
X516005Y270446D01*
X517359Y269756D01*
X518588Y268863D01*
X519663Y267788D01*
X520556Y266559D01*
X521246Y265205D01*
X521715Y263760D01*
X521832Y263023D01*
X513823Y263023D01*
G37*
%LPD*%
%LPC*%
G36*
X539223Y212223D02*
X539223Y212223D01*
X539223Y220232D01*
X539960Y220115D01*
X541405Y219646D01*
X542759Y218956D01*
X543988Y218063D01*
X545063Y216988D01*
X545956Y215759D01*
X546646Y214405D01*
X547115Y212960D01*
X547232Y212223D01*
X539223Y212223D01*
G37*
%LPD*%
%LPC*%
G36*
X539223Y161423D02*
X539223Y161423D01*
X539223Y169432D01*
X539960Y169315D01*
X541405Y168846D01*
X542759Y168156D01*
X543988Y167263D01*
X545063Y166188D01*
X545956Y164959D01*
X546646Y163605D01*
X547115Y162160D01*
X547232Y161423D01*
X539223Y161423D01*
G37*
%LPD*%
%LPC*%
G36*
X539223Y415423D02*
X539223Y415423D01*
X539223Y423432D01*
X539960Y423315D01*
X541405Y422846D01*
X542759Y422156D01*
X543988Y421263D01*
X545063Y420188D01*
X545956Y418959D01*
X546646Y417605D01*
X547115Y416160D01*
X547232Y415423D01*
X539223Y415423D01*
G37*
%LPD*%
%LPC*%
G36*
X513823Y85223D02*
X513823Y85223D01*
X513823Y93232D01*
X514560Y93115D01*
X516005Y92646D01*
X517359Y91956D01*
X518588Y91063D01*
X519663Y89988D01*
X520556Y88759D01*
X521246Y87405D01*
X521715Y85960D01*
X521832Y85223D01*
X513823Y85223D01*
G37*
%LPD*%
%LPC*%
G36*
X409623Y590573D02*
X409623Y590573D01*
X409623Y598582D01*
X410360Y598465D01*
X411805Y597996D01*
X413159Y597306D01*
X414388Y596413D01*
X415463Y595338D01*
X416356Y594109D01*
X417046Y592755D01*
X417515Y591310D01*
X417632Y590573D01*
X409623Y590573D01*
G37*
%LPD*%
%LPC*%
G36*
X83823Y551523D02*
X83823Y551523D01*
X83823Y559532D01*
X84560Y559415D01*
X86005Y558946D01*
X87359Y558256D01*
X88588Y557363D01*
X89663Y556288D01*
X90556Y555059D01*
X91246Y553705D01*
X91715Y552260D01*
X91832Y551523D01*
X83823Y551523D01*
G37*
%LPD*%
%LPC*%
G36*
X502768Y85223D02*
X502768Y85223D01*
X502885Y85960D01*
X503354Y87405D01*
X504044Y88759D01*
X504937Y89988D01*
X506012Y91063D01*
X507241Y91956D01*
X508595Y92646D01*
X510040Y93115D01*
X510777Y93232D01*
X510777Y85223D01*
X502768Y85223D01*
G37*
%LPD*%
%LPC*%
G36*
X298068Y496123D02*
X298068Y496123D01*
X298185Y496860D01*
X298654Y498305D01*
X299344Y499659D01*
X300237Y500888D01*
X301312Y501963D01*
X302541Y502856D01*
X303895Y503546D01*
X305340Y504015D01*
X306077Y504132D01*
X306077Y496123D01*
X298068Y496123D01*
G37*
%LPD*%
%LPC*%
G36*
X401123Y414577D02*
X401123Y414577D01*
X409132Y414577D01*
X409015Y413840D01*
X408546Y412395D01*
X407856Y411041D01*
X406963Y409812D01*
X405888Y408737D01*
X404659Y407844D01*
X403305Y407154D01*
X401860Y406685D01*
X401123Y406568D01*
X401123Y414577D01*
G37*
%LPD*%
%LPC*%
G36*
X72768Y551523D02*
X72768Y551523D01*
X72885Y552260D01*
X73354Y553705D01*
X74044Y555059D01*
X74937Y556288D01*
X76012Y557363D01*
X77241Y558256D01*
X78595Y558946D01*
X80040Y559415D01*
X80777Y559532D01*
X80777Y551523D01*
X72768Y551523D01*
G37*
%LPD*%
%LPC*%
G36*
X205468Y411923D02*
X205468Y411923D01*
X205585Y412660D01*
X206054Y414105D01*
X206744Y415459D01*
X207637Y416688D01*
X208712Y417763D01*
X209941Y418656D01*
X211295Y419346D01*
X212740Y419815D01*
X213477Y419932D01*
X213477Y411923D01*
X205468Y411923D01*
G37*
%LPD*%
%LPC*%
G36*
X390068Y307623D02*
X390068Y307623D01*
X390185Y308360D01*
X390654Y309805D01*
X391344Y311159D01*
X392237Y312388D01*
X393312Y313463D01*
X394541Y314356D01*
X395895Y315046D01*
X397340Y315515D01*
X398077Y315632D01*
X398077Y307623D01*
X390068Y307623D01*
G37*
%LPD*%
%LPC*%
G36*
X398568Y590573D02*
X398568Y590573D01*
X398685Y591310D01*
X399154Y592755D01*
X399844Y594109D01*
X400737Y595338D01*
X401812Y596413D01*
X403041Y597306D01*
X404395Y597996D01*
X405840Y598465D01*
X406577Y598582D01*
X406577Y590573D01*
X398568Y590573D01*
G37*
%LPD*%
%LPC*%
G36*
X528168Y415423D02*
X528168Y415423D01*
X528285Y416160D01*
X528754Y417605D01*
X529444Y418959D01*
X530337Y420188D01*
X531412Y421263D01*
X532641Y422156D01*
X533995Y422846D01*
X535440Y423315D01*
X536177Y423432D01*
X536177Y415423D01*
X528168Y415423D01*
G37*
%LPD*%
%LPC*%
G36*
X83823Y548477D02*
X83823Y548477D01*
X91832Y548477D01*
X91715Y547740D01*
X91246Y546295D01*
X90556Y544941D01*
X89663Y543712D01*
X88588Y542637D01*
X87359Y541744D01*
X86005Y541054D01*
X84560Y540585D01*
X83823Y540468D01*
X83823Y548477D01*
G37*
%LPD*%
%LPC*%
G36*
X401123Y304577D02*
X401123Y304577D01*
X409132Y304577D01*
X409015Y303840D01*
X408546Y302395D01*
X407856Y301041D01*
X406963Y299812D01*
X405888Y298737D01*
X404659Y297844D01*
X403305Y297154D01*
X401860Y296685D01*
X401123Y296568D01*
X401123Y304577D01*
G37*
%LPD*%
%LPC*%
G36*
X528168Y212223D02*
X528168Y212223D01*
X528285Y212960D01*
X528754Y214405D01*
X529444Y215759D01*
X530337Y216988D01*
X531412Y218063D01*
X532641Y218956D01*
X533995Y219646D01*
X535440Y220115D01*
X536177Y220232D01*
X536177Y212223D01*
X528168Y212223D01*
G37*
%LPD*%
%LPC*%
G36*
X390068Y417623D02*
X390068Y417623D01*
X390185Y418360D01*
X390654Y419805D01*
X391344Y421159D01*
X392237Y422388D01*
X393312Y423463D01*
X394541Y424356D01*
X395895Y425046D01*
X397340Y425515D01*
X398077Y425632D01*
X398077Y417623D01*
X390068Y417623D01*
G37*
%LPD*%
%LPC*%
G36*
X298068Y521523D02*
X298068Y521523D01*
X298185Y522260D01*
X298654Y523705D01*
X299344Y525059D01*
X300237Y526288D01*
X301312Y527363D01*
X302541Y528256D01*
X303895Y528946D01*
X305340Y529415D01*
X306077Y529532D01*
X306077Y521523D01*
X298068Y521523D01*
G37*
%LPD*%
%LPC*%
G36*
X528168Y517023D02*
X528168Y517023D01*
X528285Y517760D01*
X528754Y519205D01*
X529444Y520559D01*
X530337Y521788D01*
X531412Y522863D01*
X532641Y523756D01*
X533995Y524446D01*
X535440Y524915D01*
X536177Y525032D01*
X536177Y517023D01*
X528168Y517023D01*
G37*
%LPD*%
%LPC*%
G36*
X309123Y518477D02*
X309123Y518477D01*
X317132Y518477D01*
X317015Y517740D01*
X316546Y516295D01*
X315856Y514941D01*
X314963Y513712D01*
X313888Y512637D01*
X312659Y511744D01*
X311305Y511054D01*
X309860Y510585D01*
X309123Y510468D01*
X309123Y518477D01*
G37*
%LPD*%
%LPC*%
G36*
X528168Y339223D02*
X528168Y339223D01*
X528285Y339960D01*
X528754Y341405D01*
X529444Y342759D01*
X530337Y343988D01*
X531412Y345063D01*
X532641Y345956D01*
X533995Y346646D01*
X535440Y347115D01*
X536177Y347232D01*
X536177Y339223D01*
X528168Y339223D01*
G37*
%LPD*%
%LPC*%
G36*
X502768Y263023D02*
X502768Y263023D01*
X502885Y263760D01*
X503354Y265205D01*
X504044Y266559D01*
X504937Y267788D01*
X506012Y268863D01*
X507241Y269756D01*
X508595Y270446D01*
X510040Y270915D01*
X510777Y271032D01*
X510777Y263023D01*
X502768Y263023D01*
G37*
%LPD*%
%LPC*%
G36*
X539223Y158377D02*
X539223Y158377D01*
X547232Y158377D01*
X547115Y157640D01*
X546646Y156195D01*
X545956Y154841D01*
X545063Y153612D01*
X543988Y152537D01*
X542759Y151644D01*
X541405Y150954D01*
X539960Y150485D01*
X539223Y150368D01*
X539223Y158377D01*
G37*
%LPD*%
%LPC*%
G36*
X513823Y259977D02*
X513823Y259977D01*
X521832Y259977D01*
X521715Y259240D01*
X521246Y257795D01*
X520556Y256441D01*
X519663Y255212D01*
X518588Y254137D01*
X517359Y253244D01*
X516005Y252554D01*
X514560Y252085D01*
X513823Y251968D01*
X513823Y259977D01*
G37*
%LPD*%
%LPC*%
G36*
X528168Y161423D02*
X528168Y161423D01*
X528285Y162160D01*
X528754Y163605D01*
X529444Y164959D01*
X530337Y166188D01*
X531412Y167263D01*
X532641Y168156D01*
X533995Y168846D01*
X535440Y169315D01*
X536177Y169432D01*
X536177Y161423D01*
X528168Y161423D01*
G37*
%LPD*%
%LPC*%
G36*
X539223Y209177D02*
X539223Y209177D01*
X547232Y209177D01*
X547115Y208440D01*
X546646Y206995D01*
X545956Y205641D01*
X545063Y204412D01*
X543988Y203337D01*
X542759Y202444D01*
X541405Y201754D01*
X539960Y201285D01*
X539223Y201168D01*
X539223Y209177D01*
G37*
%LPD*%
%LPC*%
G36*
X539223Y513977D02*
X539223Y513977D01*
X547232Y513977D01*
X547115Y513240D01*
X546646Y511795D01*
X545956Y510441D01*
X545063Y509212D01*
X543988Y508137D01*
X542759Y507244D01*
X541405Y506554D01*
X539960Y506085D01*
X539223Y505968D01*
X539223Y513977D01*
G37*
%LPD*%
%LPC*%
G36*
X334523Y493077D02*
X334523Y493077D01*
X342532Y493077D01*
X342415Y492340D01*
X341946Y490895D01*
X341256Y489541D01*
X340363Y488312D01*
X339288Y487237D01*
X338059Y486344D01*
X336705Y485654D01*
X335260Y485185D01*
X334523Y485068D01*
X334523Y493077D01*
G37*
%LPD*%
%LPC*%
G36*
X513823Y82177D02*
X513823Y82177D01*
X521832Y82177D01*
X521715Y81440D01*
X521246Y79995D01*
X520556Y78641D01*
X519663Y77412D01*
X518588Y76337D01*
X517359Y75444D01*
X516005Y74754D01*
X514560Y74285D01*
X513823Y74168D01*
X513823Y82177D01*
G37*
%LPD*%
%LPC*%
G36*
X539223Y336177D02*
X539223Y336177D01*
X547232Y336177D01*
X547115Y335440D01*
X546646Y333995D01*
X545956Y332641D01*
X545063Y331412D01*
X543988Y330337D01*
X542759Y329444D01*
X541405Y328754D01*
X539960Y328285D01*
X539223Y328168D01*
X539223Y336177D01*
G37*
%LPD*%
%LPC*%
G36*
X539223Y412377D02*
X539223Y412377D01*
X547232Y412377D01*
X547115Y411640D01*
X546645Y410194D01*
X545956Y408841D01*
X545063Y407612D01*
X543988Y406537D01*
X542759Y405644D01*
X541405Y404954D01*
X539960Y404485D01*
X539223Y404368D01*
X539223Y412377D01*
G37*
%LPD*%
%LPC*%
G36*
X216523Y408877D02*
X216523Y408877D01*
X224532Y408877D01*
X224415Y408140D01*
X223946Y406695D01*
X223256Y405341D01*
X222363Y404112D01*
X221288Y403037D01*
X220059Y402144D01*
X218705Y401454D01*
X217260Y400985D01*
X216523Y400868D01*
X216523Y408877D01*
G37*
%LPD*%
%LPC*%
G36*
X510040Y252085D02*
X510040Y252085D01*
X508595Y252554D01*
X507241Y253244D01*
X506012Y254137D01*
X504937Y255212D01*
X504044Y256441D01*
X503354Y257795D01*
X502885Y259240D01*
X502768Y259977D01*
X510777Y259977D01*
X510777Y251968D01*
X510040Y252085D01*
G37*
%LPD*%
%LPC*%
G36*
X305340Y485185D02*
X305340Y485185D01*
X303895Y485654D01*
X302541Y486344D01*
X301312Y487237D01*
X300237Y488312D01*
X299344Y489541D01*
X298654Y490895D01*
X298185Y492340D01*
X298068Y493077D01*
X306077Y493077D01*
X306077Y485068D01*
X305340Y485185D01*
G37*
%LPD*%
%LPC*%
G36*
X535440Y328285D02*
X535440Y328285D01*
X533995Y328754D01*
X532641Y329444D01*
X531412Y330337D01*
X530337Y331412D01*
X529444Y332641D01*
X528754Y333995D01*
X528285Y335440D01*
X528168Y336177D01*
X536177Y336177D01*
X536177Y328168D01*
X535440Y328285D01*
G37*
%LPD*%
%LPC*%
G36*
X535440Y201285D02*
X535440Y201285D01*
X533995Y201754D01*
X532641Y202444D01*
X531412Y203337D01*
X530337Y204412D01*
X529444Y205641D01*
X528754Y206995D01*
X528285Y208440D01*
X528168Y209177D01*
X536177Y209177D01*
X536177Y201168D01*
X535440Y201285D01*
G37*
%LPD*%
%LPC*%
G36*
X535440Y506085D02*
X535440Y506085D01*
X533995Y506554D01*
X532641Y507244D01*
X531412Y508137D01*
X530337Y509212D01*
X529444Y510441D01*
X528754Y511795D01*
X528285Y513240D01*
X528168Y513977D01*
X536177Y513977D01*
X536177Y505968D01*
X535440Y506085D01*
G37*
%LPD*%
%LPC*%
G36*
X535440Y150485D02*
X535440Y150485D01*
X533995Y150954D01*
X532641Y151644D01*
X531412Y152537D01*
X530337Y153612D01*
X529444Y154841D01*
X528754Y156195D01*
X528285Y157640D01*
X528168Y158377D01*
X536177Y158377D01*
X536177Y150368D01*
X535440Y150485D01*
G37*
%LPD*%
%LPC*%
G36*
X80040Y540585D02*
X80040Y540585D01*
X78595Y541054D01*
X77241Y541744D01*
X76012Y542637D01*
X74937Y543712D01*
X74044Y544941D01*
X73354Y546295D01*
X72885Y547740D01*
X72768Y548477D01*
X80777Y548477D01*
X80777Y540468D01*
X80040Y540585D01*
G37*
%LPD*%
%LPC*%
G36*
X305340Y510585D02*
X305340Y510585D01*
X303895Y511054D01*
X302541Y511744D01*
X301312Y512637D01*
X300237Y513712D01*
X299344Y514941D01*
X298654Y516295D01*
X298185Y517740D01*
X298068Y518477D01*
X306077Y518477D01*
X306077Y510468D01*
X305340Y510585D01*
G37*
%LPD*%
%LPC*%
G36*
X397340Y406685D02*
X397340Y406685D01*
X395895Y407154D01*
X394541Y407844D01*
X393312Y408737D01*
X392237Y409812D01*
X391344Y411041D01*
X390654Y412395D01*
X390185Y413840D01*
X390068Y414577D01*
X398077Y414577D01*
X398077Y406568D01*
X397340Y406685D01*
G37*
%LPD*%
%LPC*%
G36*
X510040Y74285D02*
X510040Y74285D01*
X508595Y74754D01*
X507241Y75444D01*
X506012Y76337D01*
X504937Y77412D01*
X504044Y78641D01*
X503354Y79995D01*
X502885Y81440D01*
X502768Y82177D01*
X510777Y82177D01*
X510777Y74168D01*
X510040Y74285D01*
G37*
%LPD*%
%LPC*%
G36*
X397340Y296685D02*
X397340Y296685D01*
X395895Y297154D01*
X394541Y297844D01*
X393312Y298737D01*
X392237Y299812D01*
X391344Y301041D01*
X390654Y302395D01*
X390185Y303840D01*
X390068Y304577D01*
X398077Y304577D01*
X398077Y296568D01*
X397340Y296685D01*
G37*
%LPD*%
%LPC*%
G36*
X535440Y404485D02*
X535440Y404485D01*
X533995Y404954D01*
X532641Y405644D01*
X531412Y406537D01*
X530337Y407612D01*
X529444Y408841D01*
X528755Y410194D01*
X528285Y411640D01*
X528168Y412377D01*
X536177Y412377D01*
X536177Y404368D01*
X535440Y404485D01*
G37*
%LPD*%
%LPC*%
G36*
X212740Y400985D02*
X212740Y400985D01*
X211295Y401454D01*
X209941Y402144D01*
X208712Y403037D01*
X207637Y404112D01*
X206744Y405341D01*
X206054Y406695D01*
X205585Y408140D01*
X205468Y408877D01*
X213477Y408877D01*
X213477Y400868D01*
X212740Y400985D01*
G37*
%LPD*%
%LPC*%
G36*
X174623Y433423D02*
X174623Y433423D01*
X174623Y441253D01*
X175862Y441007D01*
X177586Y440293D01*
X179137Y439256D01*
X180456Y437937D01*
X181493Y436386D01*
X182207Y434662D01*
X182453Y433423D01*
X174623Y433423D01*
G37*
%LPD*%
%LPC*%
G36*
X163747Y433423D02*
X163747Y433423D01*
X163993Y434662D01*
X164707Y436386D01*
X165744Y437937D01*
X167063Y439256D01*
X168614Y440293D01*
X170338Y441007D01*
X171577Y441253D01*
X171577Y433423D01*
X163747Y433423D01*
G37*
%LPD*%
%LPC*%
G36*
X174623Y430377D02*
X174623Y430377D01*
X182453Y430377D01*
X182207Y429138D01*
X181493Y427414D01*
X180456Y425863D01*
X179137Y424544D01*
X177586Y423507D01*
X175862Y422793D01*
X174623Y422547D01*
X174623Y430377D01*
G37*
%LPD*%
%LPC*%
G36*
X170338Y422793D02*
X170338Y422793D01*
X168614Y423507D01*
X167063Y424544D01*
X165744Y425863D01*
X164707Y427414D01*
X163993Y429138D01*
X163747Y430377D01*
X171577Y430377D01*
X171577Y422547D01*
X170338Y422793D01*
G37*
%LPD*%
%LPC*%
G36*
X214999Y410399D02*
X214999Y410399D01*
X214999Y410401D01*
X215001Y410401D01*
X215001Y410399D01*
X214999Y410399D01*
G37*
%LPD*%
%LPC*%
G36*
X537699Y210699D02*
X537699Y210699D01*
X537699Y210701D01*
X537701Y210701D01*
X537701Y210699D01*
X537699Y210699D01*
G37*
%LPD*%
%LPC*%
G36*
X173099Y431899D02*
X173099Y431899D01*
X173099Y431901D01*
X173101Y431901D01*
X173101Y431899D01*
X173099Y431899D01*
G37*
%LPD*%
%LPC*%
G36*
X307599Y519999D02*
X307599Y519999D01*
X307599Y520001D01*
X307601Y520001D01*
X307601Y519999D01*
X307599Y519999D01*
G37*
%LPD*%
%LPC*%
G36*
X304599Y134999D02*
X304599Y134999D01*
X304599Y135001D01*
X304601Y135001D01*
X304601Y134999D01*
X304599Y134999D01*
G37*
%LPD*%
%LPC*%
G36*
X399599Y306099D02*
X399599Y306099D01*
X399599Y306101D01*
X399601Y306101D01*
X399601Y306099D01*
X399599Y306099D01*
G37*
%LPD*%
%LPC*%
G36*
X82299Y549999D02*
X82299Y549999D01*
X82299Y550001D01*
X82301Y550001D01*
X82301Y549999D01*
X82299Y549999D01*
G37*
%LPD*%
%LPC*%
G36*
X399599Y416099D02*
X399599Y416099D01*
X399599Y416101D01*
X399601Y416101D01*
X399601Y416099D01*
X399599Y416099D01*
G37*
%LPD*%
%LPC*%
G36*
X512299Y261499D02*
X512299Y261499D01*
X512299Y261501D01*
X512301Y261501D01*
X512301Y261499D01*
X512299Y261499D01*
G37*
%LPD*%
%LPC*%
G36*
X537699Y413899D02*
X537699Y413899D01*
X537699Y413901D01*
X537701Y413901D01*
X537701Y413899D01*
X537699Y413899D01*
G37*
%LPD*%
%LPC*%
G36*
X512299Y83699D02*
X512299Y83699D01*
X512299Y83701D01*
X512301Y83701D01*
X512301Y83699D01*
X512299Y83699D01*
G37*
%LPD*%
%LPC*%
G36*
X537699Y515499D02*
X537699Y515499D01*
X537699Y515501D01*
X537701Y515501D01*
X537701Y515499D01*
X537699Y515499D01*
G37*
%LPD*%
%LPC*%
G36*
X537699Y337699D02*
X537699Y337699D01*
X537699Y337701D01*
X537701Y337701D01*
X537701Y337699D01*
X537699Y337699D01*
G37*
%LPD*%
%LPC*%
G36*
X537699Y159899D02*
X537699Y159899D01*
X537699Y159901D01*
X537701Y159901D01*
X537701Y159899D01*
X537699Y159899D01*
G37*
%LPD*%
D10*
X512300Y566300D03*
X537700Y566300D03*
X512300Y540900D03*
X537700Y540900D03*
X512300Y515500D03*
X537700Y515500D03*
X512300Y490100D03*
X537700Y490100D03*
X512300Y464700D03*
X537700Y464700D03*
X512300Y439300D03*
X537700Y439300D03*
X512300Y413900D03*
X537700Y413900D03*
X512300Y388500D03*
X537700Y388500D03*
X512300Y363100D03*
X537700Y363100D03*
X512300Y337700D03*
X537700Y337700D03*
X512300Y312300D03*
X537700Y312300D03*
X512300Y286900D03*
X537700Y286900D03*
X512300Y261500D03*
X537700Y261500D03*
X512300Y236100D03*
X537700Y236100D03*
X512300Y210700D03*
X537700Y210700D03*
X512300Y185300D03*
X537700Y185300D03*
X512300Y159900D03*
X537700Y159900D03*
X512300Y134500D03*
X537700Y134500D03*
X512300Y109100D03*
X537700Y109100D03*
X512300Y83700D03*
X537700Y83700D03*
D11*
X20500Y155000D03*
X259500Y155000D03*
D12*
X304600Y55000D03*
X355400Y55000D03*
D13*
X218500Y264600D03*
D14*
X218500Y290000D03*
X218500Y315400D03*
D15*
X374200Y416100D03*
D10*
X399600Y416100D03*
X425000Y416100D03*
X275000Y435400D03*
X275000Y410000D03*
X275000Y384600D03*
X275000Y290000D03*
X275000Y315400D03*
D12*
X355400Y135000D03*
X304600Y135000D03*
D16*
X96900Y431900D03*
X122300Y431900D03*
X147700Y431900D03*
X173100Y431900D03*
X173100Y508100D03*
X147700Y508100D03*
X122300Y508100D03*
X96900Y508100D03*
D15*
X374200Y306100D03*
D10*
X399600Y306100D03*
X425000Y306100D03*
X262300Y605000D03*
X287700Y605000D03*
X460000Y520000D03*
X460000Y494600D03*
X434600Y520000D03*
X434600Y494600D03*
X409200Y520000D03*
X409200Y494600D03*
X383800Y520000D03*
X383800Y494600D03*
X358400Y520000D03*
X358400Y494600D03*
X333000Y520000D03*
X333000Y494600D03*
X307600Y520000D03*
X307600Y494600D03*
X107700Y550000D03*
X82300Y550000D03*
D15*
X408100Y550950D03*
D10*
X408100Y570000D03*
X408100Y589050D03*
D15*
X138100Y370950D03*
D10*
X138100Y390000D03*
X138100Y409050D03*
X215000Y359600D03*
X215000Y410400D03*
D17*
X35000Y615000D03*
X525000Y615000D03*
X525000Y35000D03*
X35000Y35000D03*
D18*
X200000Y130000D03*
X200000Y120000D03*
X200000Y110000D03*
X190000Y130000D03*
X190000Y120000D03*
X190000Y110000D03*
X180000Y110000D03*
X180000Y120000D03*
X180000Y130000D03*
X170000Y130000D03*
X170000Y120000D03*
X170000Y110000D03*
D19*
X218500Y315400D02*
X275000Y315400D01*
D20*
X496950Y550950D02*
X512300Y566300D01*
X496950Y550950D02*
X408100Y550950D01*
X409200Y549850D02*
X409200Y520000D01*
X409200Y549850D02*
X408100Y550950D01*
D19*
X374200Y306100D02*
X358100Y290000D01*
X275000Y290000D01*
X218500Y290000D02*
X200000Y290000D01*
X185000Y305000D01*
X185000Y345000D01*
X199600Y359600D01*
X215000Y359600D01*
D18*
X320000Y535000D03*
D21*
X320000Y572700D01*
X287700Y605000D01*
X525100Y477500D02*
X537700Y490100D01*
X487500Y477500D02*
X480000Y470000D01*
X393400Y470000D01*
X383800Y479600D01*
X383800Y494600D01*
X487500Y477500D02*
X525100Y477500D01*
X537200Y464700D02*
X537700Y464700D01*
X537200Y464700D02*
X525000Y452500D01*
X385500Y452500D02*
X358400Y479600D01*
X358400Y494600D01*
X385500Y452500D02*
X525000Y452500D01*
X173100Y508100D02*
X147700Y482700D01*
X147700Y431900D01*
X485100Y490100D02*
X512300Y490100D01*
X485100Y490100D02*
X475000Y480000D01*
X405000Y480000D01*
X396750Y507050D02*
X383800Y520000D01*
X396750Y488250D02*
X405000Y480000D01*
X396750Y488250D02*
X396750Y507050D01*
X512300Y540900D02*
X525000Y553600D01*
X525000Y572500D01*
X517500Y580000D01*
X460000Y580000D02*
X430000Y610000D01*
X380000Y610000D01*
X358400Y588400D02*
X358400Y520000D01*
X460000Y580000D02*
X517500Y580000D01*
X380000Y610000D02*
X358400Y588400D01*
X333000Y520000D02*
X320000Y507000D01*
X320000Y470000D02*
X357500Y432500D01*
D18*
X357500Y432500D03*
D21*
X320000Y470000D02*
X320000Y507000D01*
X425100Y272500D02*
X512300Y185300D01*
X425100Y272500D02*
X410000Y272500D01*
D18*
X410000Y272500D03*
M02*
