M48
;GenerationSoftware,Autodesk,EAGLE,9.4.2*%
;CreationDate,2019-12-11T15:27:05Z*%
FMAT,2
ICI,OFF
METRIC,TZ,000.000
T7C0.350
T6C0.786
T5C0.800
T4C0.900
T3C1.100
T2C3.200
T1C3.900
%
G90
M71
T1
X4500Y29000
T2
X3500Y61500
X52500Y61500
X52500Y3500
X3500Y3500
T3
X30460Y13500
X35540Y13500
X30460Y5500
X21850Y31540
X21850Y29000
X21850Y26460
X35540Y5500
T4
X38380Y52000
X38380Y49460
X35840Y52000
X35840Y49460
X33300Y52000
X33300Y49460
X30760Y52000
X30760Y49460
X51230Y46470
X51230Y56630
X53770Y56630
X51230Y54090
X53770Y54090
X51230Y51550
X53770Y51550
X51230Y49010
X53770Y49010
X53770Y46470
X51230Y43930
X53770Y43930
X51230Y41390
X53770Y41390
X51230Y38850
X53770Y38850
X51230Y36310
X53770Y36310
X51230Y33770
X53770Y33770
X51230Y31230
X53770Y31230
X51230Y28690
X53770Y28690
X51230Y26150
X53770Y26150
X51230Y23610
X53770Y23610
X51230Y21070
X53770Y21070
X51230Y18530
X53770Y18530
X51230Y15990
X53770Y15990
X51230Y13450
X53770Y13450
X51230Y10910
X53770Y10910
X51230Y8370
X53770Y8370
X2050Y15500
X25950Y15500
X37420Y41610
X39960Y41610
X42500Y41610
X37420Y30610
X39960Y30610
X42500Y30610
X46000Y52000
X46000Y49460
X43460Y52000
X43460Y49460
X40920Y52000
X40920Y49460
T5
X27500Y38460
X21500Y35960
X27500Y43540
X27500Y41000
X21500Y41040
X27500Y29000
X27500Y31540
X10770Y55000
X8230Y55000
X40810Y55095
X40810Y57000
X40810Y58905
X13810Y37095
X13810Y39000
X26230Y60500
X28770Y60500
X13810Y40905
T6
X14770Y50810
X12230Y50810
X9690Y50810
X9690Y43190
X12230Y43190
X14770Y43190
X17310Y43190
X17310Y50810
T7
X20000Y12000
X20000Y11000
X19000Y13000
X19000Y12000
X19000Y11000
X18000Y11000
X18000Y12000
X32000Y53500
X17000Y11000
X17000Y12000
X41000Y27250
X35750Y43250
X17000Y13000
X18000Y13000
X20000Y13000
M30