G04 EAGLE Gerber RS-274X export*
G75*
%MOMM*%
%FSLAX34Y34*%
%LPD*%
%INSoldermask Top*%
%IPPOS*%
%AMOC8*
5,1,8,0,0,1.08239X$1,22.5*%
G01*
%ADD10C,1.625600*%
%ADD11C,1.703200*%
%ADD12R,4.203200X8.203200*%
%ADD13C,1.853200*%
%ADD14R,1.879600X1.879600*%
%ADD15C,1.879600*%
%ADD16C,4.103200*%
%ADD17R,1.625600X1.625600*%
%ADD18R,1.190500X1.515000*%
%ADD19R,1.515000X1.190500*%
%ADD20C,1.589200*%
%ADD21C,5.703200*%
%ADD22C,0.959600*%


D10*
X512300Y566300D03*
X537700Y566300D03*
X512300Y540900D03*
X537700Y540900D03*
X512300Y515500D03*
X537700Y515500D03*
X512300Y490100D03*
X537700Y490100D03*
X512300Y464700D03*
X537700Y464700D03*
X512300Y439300D03*
X537700Y439300D03*
X512300Y413900D03*
X537700Y413900D03*
X512300Y388500D03*
X537700Y388500D03*
X512300Y363100D03*
X537700Y363100D03*
X512300Y337700D03*
X537700Y337700D03*
X512300Y312300D03*
X537700Y312300D03*
X512300Y286900D03*
X537700Y286900D03*
X512300Y261500D03*
X537700Y261500D03*
X512300Y236100D03*
X537700Y236100D03*
X512300Y210700D03*
X537700Y210700D03*
X512300Y185300D03*
X537700Y185300D03*
X512300Y159900D03*
X537700Y159900D03*
X512300Y134500D03*
X537700Y134500D03*
X512300Y109100D03*
X537700Y109100D03*
X512300Y83700D03*
X537700Y83700D03*
D11*
X20500Y155000D03*
X259500Y155000D03*
D12*
X120000Y60000D03*
X187300Y60000D03*
D13*
X304600Y55000D03*
X355400Y55000D03*
D14*
X218500Y264600D03*
D15*
X218500Y290000D03*
X218500Y315400D03*
D16*
X45000Y290000D03*
D17*
X374200Y416100D03*
D10*
X399600Y416100D03*
X425000Y416100D03*
D18*
X184123Y550000D03*
X165877Y550000D03*
X219123Y550000D03*
X200877Y550000D03*
D10*
X275000Y435400D03*
X275000Y410000D03*
X275000Y384600D03*
D19*
X40000Y509123D03*
X40000Y490877D03*
X340000Y215877D03*
X340000Y234123D03*
D18*
X415877Y135000D03*
X434123Y135000D03*
D10*
X275000Y290000D03*
X275000Y315400D03*
D13*
X355400Y135000D03*
X304600Y135000D03*
D19*
X370000Y215877D03*
X370000Y234123D03*
D18*
X415877Y210000D03*
X434123Y210000D03*
D20*
X96900Y431900D03*
X122300Y431900D03*
X147700Y431900D03*
X173100Y431900D03*
X173100Y508100D03*
X147700Y508100D03*
X122300Y508100D03*
X96900Y508100D03*
D19*
X40000Y459123D03*
X40000Y440877D03*
D17*
X374200Y306100D03*
D10*
X399600Y306100D03*
X425000Y306100D03*
D19*
X270000Y519123D03*
X270000Y500877D03*
D10*
X262300Y605000D03*
X287700Y605000D03*
D19*
X310000Y215877D03*
X310000Y234123D03*
D18*
X415877Y55000D03*
X434123Y55000D03*
D10*
X460000Y520000D03*
X460000Y494600D03*
X434600Y520000D03*
X434600Y494600D03*
X409200Y520000D03*
X409200Y494600D03*
X383800Y520000D03*
X383800Y494600D03*
X358400Y520000D03*
X358400Y494600D03*
X333000Y520000D03*
X333000Y494600D03*
X307600Y520000D03*
X307600Y494600D03*
D19*
X230000Y500877D03*
X230000Y519123D03*
D10*
X107700Y550000D03*
X82300Y550000D03*
D17*
X408100Y550950D03*
D10*
X408100Y570000D03*
X408100Y589050D03*
D18*
X379123Y620000D03*
X360877Y620000D03*
X400877Y620000D03*
X419123Y620000D03*
D17*
X138100Y370950D03*
D10*
X138100Y390000D03*
X138100Y409050D03*
X215000Y359600D03*
X215000Y410400D03*
D18*
X130877Y550000D03*
X149123Y550000D03*
D21*
X35000Y615000D03*
X525000Y615000D03*
X525000Y35000D03*
X35000Y35000D03*
D22*
X200000Y130000D03*
X200000Y120000D03*
X200000Y110000D03*
X190000Y130000D03*
X190000Y120000D03*
X190000Y110000D03*
X180000Y110000D03*
X180000Y120000D03*
X180000Y130000D03*
X170000Y130000D03*
X170000Y120000D03*
X170000Y110000D03*
X320000Y535000D03*
X357500Y432500D03*
X410000Y272500D03*
M02*
