0
SECTION
2
HEADER
9
$INSUNITS
70
4
9
$ACADVER
1
AC1014
9
$HANDSEED
5
FFFF
0
ENDSEC
0
SECTION
2
TABLES
0
TABLE
2
VPORT
5
8
100
AcDbSymbolTable
0
ENDTAB
0
TABLE
2
LTYPE
5
5
100
AcDbSymbolTable
0
LTYPE
5
14
100
AcDbSymbolTableRecord
100
AcDbLinetypeTableRecord
2
BYBLOCK
70
0
0
LTYPE
5
15
100
AcDbSymbolTableRecord
100
AcDbLinetypeTableRecord
2
BYLAYER
70
0
0
ENDTAB
0
TABLE
2
LAYER
5
2
100
AcDbSymbolTable
70
2
0
LAYER
5
50
100
AcDbSymbolTableRecord
100
AcDbLayerTableRecord
2
0
70
0
6
CONTINUOUS
0
ENDTAB
0
TABLE
2
STYLE
5
3
100
AcDbSymbolTable
70
1
0
STYLE
5
11
100
AcDbSymbolTableRecord
100
AcDbTextStyleTableRecord
2
STANDARD
70
0
0
ENDTAB
0
TABLE
2
VIEW
5
6
100
AcDbSymbolTable
70
0
0
ENDTAB
0
TABLE
2
UCS
5
7
100
AcDbSymbolTable
70
0
0
ENDTAB
0
TABLE
2
APPID
5
9
100
AcDbSymbolTable
70
2
0
APPID
5
12
100
AcDbSymbolTableRecord
100
AcDbRegAppTableRecord
2
ACAD
70
0
0
ENDTAB
0
TABLE
2
DIMSTYLE
5
A
100
AcDbSymbolTable
70
1
0
ENDTAB
0
TABLE
2
BLOCK_RECORD
5
1
100
AcDbSymbolTable
70
1
0
BLOCK_RECORD
5
1F
100
AcDbSymbolTableRecord
100
AcDbBlockTableRecord
2
*MODEL_SPACE
0
BLOCK_RECORD
5
1B
100
AcDbSymbolTableRecord
100
AcDbBlockTableRecord
2
*PAPER_SPACE
0
ENDTAB
0
ENDSEC
0
SECTION
2
BLOCKS
0
BLOCK
5
20
100
AcDbEntity
100
AcDbBlockBegin
2
*MODEL_SPACE
0
ENDBLK
5
21
100
AcDbEntity
100
AcDbBlockEnd
0
BLOCK
5
1C
100
AcDbEntity
100
AcDbBlockBegin
2
*PAPER_SPACE
0
ENDBLK
5
1D
100
AcDbEntity
100
AcDbBlockEnd
0
ENDSEC
0
SECTION
2
ENTITIES
0
CIRCLE
5
100
100
AcDbEntity
8
OUTER_PROFILES
100
AcDbCircle
10
27.422618401604183
20
10.499999999999998
30
0
40
49.499999999999993
210
0
220
0
230
1
0
CIRCLE
5
101
100
AcDbEntity
8
INTERIOR_PROFILES
100
AcDbCircle
10
-57.077541754900082
20
11
30
0
40
1.6500000000000004
210
0
220
0
230
-1
0
LWPOLYLINE
5
102
100
AcDbEntity
8
INTERIOR_PROFILES
100
AcDbPolyline
90
16
70
1
43
0.0
10
40.916867458233071
20
11.060295394876881
42
-0.21646789215961956
10
37.151519717182879
20
9.3499999999999961
10
17.69371708602548
20
9.3499999999999961
42
-0.21646789215961978
10
13.928369344975287
20
11.060295394876887
10
11.980581716838364
20
13.289704605123111
42
0.21646789215962003
10
8.2152339757881627
20
15
10
-2.6106964337582319
20
14.999999999999996
42
-0.50707093177877638
10
-7.3778892647681538
20
21.507936507936506
42
-0.17507423888064963
10
7.6901548347370845
20
41.206349206349209
42
-0.14377059667448935
10
10.393232035677782
20
42
10
44.452004767530589
20
42
42
-0.14377059667448877
10
47.155081968471279
20
41.206349206349209
42
-0.17507423888064966
10
62.223126067976509
20
21.507936507936499
42
-0.50707093177877616
10
57.455933236966601
20
15
10
46.630002827420199
20
15.000000000000002
42
0.21646789215961978
10
42.864655086370007
20
13.289704605123111
0
CIRCLE
5
103
100
AcDbEntity
8
INTERIOR_PROFILES
100
AcDbCircle
10
2.2323049516917104
20
10.999999999999996
30
0
40
1.6500000000000004
210
0
220
0
230
-1
0
LWPOLYLINE
5
104
100
AcDbEntity
8
INTERIOR_PROFILES
100
AcDbPolyline
90
8
70
1
43
0.0
10
14.006210536605447
20
-23.000000000000004
42
-0.11043973995626093
10
11.87662198660564
20
-22.523809523809529
42
-0.1553217376995645
10
-4.3527965716832036
20
-7.4603174603174596
42
-0.5743075114903613
10
0
20
0
10
54.84523680320838
20
-7.7715611723760958e-15
42
-0.57430751149036097
10
59.198033374891565
20
-7.460317460317456
42
-0.15532173769956448
10
42.968614816602731
20
-22.523809523809529
42
-0.11043973995626036
10
40.839026266602936
20
-23.000000000000004
0
CIRCLE
5
105
100
AcDbEntity
8
INTERIOR_PROFILES
100
AcDbCircle
10
-48.077541754900075
20
11.000000000000004
30
0
40
1.6500000000000004
210
0
220
0
230
-1
0
CIRCLE
5
106
100
AcDbEntity
8
INTERIOR_PROFILES
100
AcDbCircle
10
-6.7676950483082887
20
10.999999999999998
30
0
40
1.6500000000000004
210
0
220
0
230
-1
0
CIRCLE
5
107
100
AcDbEntity
8
INTERIOR_PROFILES
100
AcDbCircle
10
-27.422618401604183
20
-33.25
30
0
40
2.6500000000000012
210
0
220
0
230
-1
0
CIRCLE
5
108
100
AcDbEntity
8
INTERIOR_PROFILES
100
AcDbCircle
10
-27.422618401604183
20
54.25
30
0
40
2.6500000000000012
210
0
220
0
230
-1
0
CIRCLE
5
109
100
AcDbEntity
8
INTERIOR_PROFILES
100
AcDbCircle
10
-71.172618401604183
20
10.499999999999998
30
0
40
2.6499999999999968
210
0
220
0
230
-1
0
CIRCLE
5
110
100
AcDbEntity
8
INTERIOR_PROFILES
100
AcDbCircle
10
-15.422618401604179
20
54
30
0
40
1.6500000000000004
210
0
220
0
230
-1
0
CIRCLE
5
111
100
AcDbEntity
8
INTERIOR_PROFILES
100
AcDbCircle
10
16.327381598395817
20
10.499999999999998
30
0
40
2.6500000000000057
210
0
220
0
230
-1
0
CIRCLE
5
112
100
AcDbEntity
8
INTERIOR_PROFILES
100
AcDbCircle
10
-39.422618401604183
20
54
30
0
40
1.6500000000000048
210
0
220
0
230
-1
0
ENDSEC
0
SECTION
2
OBJECTS
0
DICTIONARY
5
C
100
AcDbDictionary
3
ACAD_GROUP
350
D
3
ACAD_MLINESTYLE
350
17
0
DICTIONARY
5
D
100
AcDbDictionary
0
DICTIONARY
5
1A
330
C
100
AcDbDictionary
0
DICTIONARY
5
17
100
AcDbDictionary
0
ENDSEC
0
EOF
